<svg width="256" height="288" viewBox="0 0 256 288" fill="none" xmlns="http://www.w3.org/2000/svg">
  <path d="M160.382 131.692L181.49 95.8757L238.383 184.489L238.41 201.495L238.225 84.4732C238.09 81.6126 236.571 78.996 234.148 77.4527L131.718 18.5338C129.324 17.3557 126.284 17.3693 123.892 18.5711C123.569 18.7321 123.265 18.9085 122.976 19.1009L122.618 19.3253L23.1952 76.94L22.8098 77.1152C22.3137 77.3431 21.8117 77.6332 21.3417 77.9701C19.4561 79.3216 18.2047 81.3208 17.7997 83.5633C17.7387 83.9031 17.6938 84.2488 17.673 84.5987L17.8293 179.96L70.8223 97.8228C77.4947 86.9318 92.0307 83.4236 105.525 83.6142L121.363 84.0322L28.0431 233.691L39.0437 240.024L133.481 84.1843L175.223 84.0328L81.0289 243.805L120.282 266.383L124.972 269.08C126.956 269.886 129.295 269.927 131.295 269.204L235.163 209.011L215.305 220.518L160.382 131.692ZM168.435 247.68L128.789 185.456L152.991 144.388L205.058 226.456L168.435 247.68Z" fill="#2D374B"/>
  <path d="M128.79 185.456L168.435 247.68L205.059 226.456L152.991 144.388L128.79 185.456Z" fill="#28A0F0"/>
  <path d="M238.41 201.495L238.383 184.488L181.49 95.8752L160.382 131.691L215.305 220.517L235.163 209.01C237.11 207.427 238.289 205.106 238.413 202.601L238.41 201.495Z" fill="#28A0F0"/>
  <path d="M0.000549316 217.532L28.043 233.691L121.362 84.0329L105.525 83.615C92.03 83.4243 77.4934 86.9325 70.8216 97.8236L17.8286 179.961L0.000549316 207.353V217.532Z" fill="white"/>
  <path d="M175.223 84.033L133.481 84.1845L39.0436 240.024L72.0523 259.029L81.0289 243.805L175.223 84.033Z" fill="white"/>
  <path d="M256 83.818C255.651 75.0883 250.924 67.0969 243.521 62.4444L139.749 2.76775C132.425 -0.91982 123.276 -0.924556 115.94 2.76538C115.072 3.20287 15.0244 61.2266 15.0244 61.2266C13.6397 61.8909 12.3059 62.6818 11.0515 63.5798C4.44237 68.3164 0.413808 75.6774 0 83.7641V207.353L17.8281 179.961L17.6724 84.5994C17.6931 84.2507 17.7369 83.9073 17.7991 83.5687C18.2022 81.325 19.4549 79.3235 21.341 77.9708C21.8117 77.6339 123.569 18.7328 123.892 18.5712C126.284 17.37 129.324 17.3558 131.718 18.5339L234.147 77.4516C236.571 78.9949 238.09 81.6116 238.225 84.4721V202.601C238.101 205.106 237.11 207.427 235.163 209.01L215.305 220.517L205.058 226.455L168.435 247.68L131.294 269.203C129.294 269.926 126.955 269.885 124.971 269.079L81.0283 243.804L72.0518 259.029L111.542 281.765C112.848 282.508 114.011 283.166 114.966 283.702C116.444 284.531 117.452 285.086 117.808 285.259C120.614 286.622 124.653 287.415 128.292 287.415C131.628 287.415 134.882 286.803 137.96 285.597L245.838 223.122C252.029 218.325 255.672 211.09 256 203.252V83.818Z" fill="#96BEDC"/>
</svg>
