<svg width="257" height="256" viewBox="0 0 257 256" fill="none" xmlns="http://www.w3.org/2000/svg">
  <path d="M128.513 256C199.206 256 256.513 198.692 256.513 128C256.513 57.3076 199.206 0 128.513 0C57.821 0 0.513428 57.3076 0.513428 128C0.513428 198.692 57.821 256 128.513 256Z" fill="#E84142"/>
  <path d="M90.4918 129.555C92.6085 125.899 96.0241 125.899 98.1408 129.555L111.322 152.695C113.439 156.351 111.707 159.333 107.474 159.333H80.9185C76.7332 159.333 75.0013 156.351 77.0699 152.695L90.4918 129.555ZM64.995 85.008C67.1117 81.3518 70.4792 81.3518 72.596 85.008L75.5305 90.2998L82.4579 102.471C84.1417 105.935 84.1417 110.024 82.4579 113.487L59.2222 153.753C57.1055 157.024 53.5936 159.093 49.697 159.333H30.406C26.1726 159.333 24.4407 156.399 26.5575 152.695L64.995 85.008Z" fill="white"/>
  <path d="M152.216 107.745C154.333 111.431 157.749 111.431 159.866 107.745L173.049 84.4109C175.166 80.7241 173.434 77.7164 169.2 77.7164L142.641 77.7164C138.456 77.7164 136.723 80.724 138.792 84.4109L152.216 107.745ZM126.716 152.666C128.833 156.352 132.201 156.352 134.318 152.666L137.253 147.329L144.181 135.056C145.865 131.563 145.865 127.44 144.181 123.947L120.942 83.3436C118.825 80.0449 115.313 77.9589 111.416 77.7164L92.1223 77.7164C87.8883 77.7164 86.1562 80.6755 88.2732 84.4109L126.716 152.666Z" fill="white"/>
  <path d="M212.698 129.555C214.815 125.899 218.23 125.899 220.347 129.555L233.528 152.695C235.645 156.351 233.913 159.333 229.68 159.333H203.125C198.939 159.333 197.208 156.351 199.276 152.695L212.698 129.555ZM187.201 85.008C189.318 81.3518 192.685 81.3518 194.802 85.008L197.737 90.2998L204.664 102.471C206.348 105.935 206.348 110.024 204.664 113.487L181.428 153.753C179.312 157.024 175.8 159.093 171.903 159.333H152.612C148.379 159.333 146.647 156.399 148.764 152.695L187.201 85.008Z" fill="white"/>
</svg>
