<svg width="256" height="256" viewBox="0 0 256 256" fill="none" xmlns="http://www.w3.org/2000/svg">
  <svg width="256" height="256" viewBox="0 0 256 256" fill="none" xmlns="http://www.w3.org/2000/svg">
    <path d="M128 256C198.694 256 256 198.694 256 128C256 57.3056 198.694 0 128 0C57.3056 0 0 57.3056 0 128C0 198.694 57.3056 256 128 256Z" fill="#1C1D21"/>
  </svg>
  <path fill-rule="evenodd" clip-rule="evenodd" d="M128 256C198.692 256 256 198.692 256 128C256 57.3076 198.692 0 128 0C57.3076 0 0 57.3076 0 128C0 198.692 57.3076 256 128 256ZM38.4 169.126H219.594V138.672H165.748L208.163 96.2596L186.63 74.7264L144.203 117.142V57.6H113.756V117.142L71.3521 74.7264L49.8189 96.2596L92.2348 138.672H38.4V169.126Z" fill="#2CC994"/>
</svg>
