<svg width="256" height="256" viewBox="0 0 256 256" fill="none" xmlns="http://www.w3.org/2000/svg">
  <path d="M128 256C198.694 256 256 198.694 256 128C256 57.3056 198.694 0 128 0C57.3056 0 0 57.3056 0 128C0 198.694 57.3056 256 128 256Z" fill="#627EEA"/>
  <path d="M128.108 25.5999L69.12 129.898L128.108 101.331V25.5999Z" fill="white"/>
  <path d="M128.108 101.332L69.1199 129.898L128.108 167.06V101.332Z" fill="#C0CBF6"/>
  <path d="M187.108 129.898L128.109 25.5999V101.331L187.108 129.898Z" fill="#C0CBF6"/>
  <path d="M128.109 167.06L187.108 129.898L128.109 101.332V167.06Z" fill="#8197EE"/>
  <path d="M69.1199 141.823L128.108 230.4V178.961L69.1199 141.823Z" fill="white"/>
  <path d="M128.109 178.961V230.4L187.141 141.823L128.109 178.961Z" fill="#C0CBF6"/>
</svg>
