<svg width="256" height="256" viewBox="0 0 256 256" fill="none" xmlns="http://www.w3.org/2000/svg">
<path d="M128 256C198.692 256 256 198.692 256 128C256 57.3076 198.692 0 128 0C57.3076 0 0 57.3076 0 128C0 198.692 57.3076 256 128 256Z" fill="#FF433E"/>
<path d="M170.933 108.167H182.267L162.533 157.2H149.433L129.7 108.167H141.033L155.933 145.367L170.933 108.167ZM38.3333 98V157.167H28V98H38.3333ZM66.5667 157.2L43.9333 127.6L66.5667 98H79.5333L57.2 127.6L79.5333 157.2H66.5667ZM104.233 106.833C92.9333 106.833 84.4333 113.067 83.8 122.367L83.7333 123.467H93.8667L94.0333 122.667C94.9667 118.3 98.5333 115.9 104.033 115.9C110.033 115.9 113.467 118.9 113.467 124.2V127.233L100.733 127.967C89.3 128.633 82.3667 134.233 82.3667 142.933C82.3667 152.1 89.2333 158.267 99.3667 158.267C105.4 158.267 109.8 156.633 113.4 152.933V157.433H123.667V123.433C123.733 113.367 115.967 106.833 104.233 106.833ZM113.5 135.2V138.233C112.833 144.9 108.233 149.067 101.167 149.4C98.4333 149.533 96.1 148.8 94.5667 147.333C93.3667 146.2 92.7333 144.633 92.7333 142.9C92.7333 139 96.0667 136.533 101.9 136.167L113.5 135.2ZM208.5 106.833C197.2 106.833 188.7 113.067 188.067 122.367L188 123.467H198.133L198.3 122.667C199.233 118.3 202.8 115.9 208.3 115.9C214.3 115.9 217.733 118.9 217.733 124.2V127.233L205.033 127.967C193.6 128.633 186.667 134.233 186.667 142.933C186.667 152.1 193.533 158.267 203.667 158.267C209.7 158.267 214.1 156.633 217.7 152.933V157.433H228V123.433C228 113.367 220.233 106.833 208.5 106.833ZM217.767 135.2V138.233C217.1 144.9 212.5 149.067 205.433 149.4C202.7 149.533 200.367 148.8 198.833 147.333C197.633 146.2 197 144.633 197 142.9C197 139 200.333 136.533 206.167 136.167L217.767 135.2Z" fill="white"/>
</svg>
