<svg width="256" height="256" viewBox="0 0 256 256" fill="none" xmlns="http://www.w3.org/2000/svg">
<path d="M128 256C198.694 256 256 198.694 256 128C256 57.3056 198.694 0 128 0C57.3056 0 0 57.3056 0 128C0 198.694 57.3056 256 128 256Z" fill="#272C33"/>
<path d="M144.601 53C130.029 53.0057 116.055 58.7994 105.754 69.1069C95.4525 79.4143 89.6672 93.3914 89.6703 107.964C89.6703 108.002 89.6703 108.039 89.6703 108.079V108.168C89.7095 108.859 90.0117 109.508 90.5147 109.982C91.0177 110.456 91.6835 110.72 92.3749 110.719H196.826C197.518 110.72 198.183 110.456 198.686 109.982C199.189 109.508 199.491 108.859 199.53 108.168L199.534 108.079C199.534 108.039 199.534 108.002 199.534 107.964C199.538 93.3909 193.752 79.4134 183.45 69.1059C173.148 58.7984 159.174 53.005 144.601 53Z" fill="#53CBC8"/>
<path d="M53.3016 169.332C53.301 169.993 53.1045 170.639 52.7369 171.188C52.3693 171.738 51.8471 172.166 51.2363 172.418C50.6255 172.671 49.9535 172.737 49.3053 172.608C48.657 172.479 48.0616 172.16 47.5943 171.693C47.127 171.225 46.8088 170.629 46.68 169.981C46.5511 169.333 46.6174 168.661 46.8703 168.05C47.1233 167.439 47.5516 166.917 48.1011 166.55C48.6507 166.183 49.2968 165.987 49.9578 165.987C50.397 165.987 50.832 166.073 51.2378 166.241C51.6436 166.409 52.0123 166.656 52.3228 166.967C52.6334 167.277 52.8796 167.646 53.0475 168.052C53.2155 168.458 53.3018 168.893 53.3016 169.332Z" fill="#E1147B"/>
<path d="M193.193 150.826H81.1165C80.5463 150.826 79.9861 150.975 79.4905 151.257C78.995 151.539 78.5811 151.945 78.2892 152.435C77.9974 152.925 77.8376 153.482 77.8255 154.052C77.8133 154.622 77.9493 155.185 78.2201 155.687C78.238 155.722 78.2568 155.757 78.2756 155.791C78.5579 156.313 78.9763 156.749 79.4864 157.053C79.9965 157.357 80.5793 157.517 81.173 157.516H193.139C193.733 157.517 194.316 157.357 194.826 157.053C195.336 156.749 195.754 156.313 196.037 155.791L196.092 155.687C196.363 155.185 196.499 154.621 196.486 154.051C196.474 153.481 196.314 152.924 196.022 152.434C195.73 151.944 195.315 151.539 194.82 151.257C194.324 150.975 193.763 150.826 193.193 150.826Z" fill="#E1147B"/>
<path d="M208.085 120.502H81.1137C80.6655 120.504 80.2223 120.596 79.8109 120.774C79.3996 120.952 79.0289 121.212 78.7214 121.538C78.4139 121.864 78.176 122.25 78.0223 122.671C77.8685 123.092 77.8022 123.539 77.8273 123.987C77.8273 124.022 77.8273 124.057 77.8327 124.092C77.8799 124.931 78.2471 125.72 78.8586 126.297C79.4701 126.874 80.2793 127.194 81.1199 127.193H208.085C208.925 127.194 209.735 126.874 210.346 126.297C210.957 125.72 211.325 124.931 211.372 124.092C211.372 124.057 211.372 124.022 211.377 123.987C211.403 123.539 211.336 123.09 211.182 122.669C211.028 122.248 210.789 121.862 210.481 121.536C210.173 121.21 209.802 120.95 209.39 120.772C208.977 120.594 208.534 120.503 208.085 120.502Z" fill="#E1147B"/>
<path d="M160.278 196.31H103.055C102.313 196.31 101.592 196.561 101.011 197.022C100.429 197.483 100.02 198.127 99.8497 198.85C99.6797 199.573 99.7588 200.331 100.074 201.004C100.389 201.676 100.923 202.221 101.587 202.553L101.797 202.658C102.253 202.884 102.755 203.001 103.264 203H160.067C160.576 203.001 161.079 202.884 161.535 202.658L161.744 202.553C162.408 202.222 162.941 201.676 163.256 201.004C163.572 200.332 163.651 199.574 163.481 198.851C163.312 198.129 162.903 197.485 162.322 197.023C161.74 196.562 161.02 196.311 160.278 196.31Z" fill="#E1147B"/>
<path d="M195.238 181.148H138.017C137.275 181.15 136.555 181.401 135.974 181.862C135.393 182.324 134.985 182.967 134.815 183.689C134.645 184.412 134.724 185.17 135.039 185.842C135.354 186.513 135.886 187.059 136.549 187.391L136.758 187.496C137.215 187.722 137.717 187.839 138.227 187.838H195.026C195.535 187.839 196.038 187.722 196.494 187.496L196.703 187.391C197.366 187.059 197.898 186.514 198.213 185.842C198.528 185.171 198.607 184.413 198.437 183.691C198.268 182.969 197.86 182.325 197.279 181.864C196.699 181.402 195.98 181.15 195.238 181.148Z" fill="#E1147B"/>
<path d="M117.213 171.623L117.116 171.519C116.68 171.049 116.391 170.462 116.283 169.83C116.176 169.199 116.255 168.549 116.512 167.962C116.768 167.374 117.19 166.874 117.727 166.523C118.263 166.172 118.89 165.985 119.531 165.985H212.403C213.044 165.985 213.671 166.172 214.208 166.523C214.744 166.874 215.166 167.374 215.422 167.962C215.679 168.549 215.758 169.199 215.651 169.83C215.544 170.462 215.254 171.049 214.818 171.519L214.721 171.623C214.412 171.954 214.038 172.218 213.623 172.399C213.208 172.58 212.76 172.674 212.307 172.676H119.627C119.174 172.674 118.726 172.58 118.311 172.399C117.896 172.218 117.522 171.954 117.213 171.623Z" fill="#E1147B"/>
<path d="M61.8984 165.987H106.247C106.989 165.988 107.709 166.24 108.29 166.701C108.871 167.162 109.279 167.806 109.449 168.528C109.619 169.25 109.54 170.008 109.225 170.68C108.911 171.352 108.378 171.898 107.715 172.229L107.506 172.334C107.05 172.561 106.548 172.678 106.039 172.677H62.1126C61.6032 172.678 61.1004 172.561 60.6442 172.334L60.4353 172.229C59.7721 171.898 59.2401 171.352 58.9253 170.681C58.6105 170.01 58.5313 169.252 58.7004 168.53C58.8696 167.808 59.2773 167.164 59.8576 166.703C60.4379 166.241 61.1569 165.989 61.8984 165.987Z" fill="#E1147B"/>
<path d="M72.5169 123.847C72.5165 124.508 72.3202 125.154 71.9527 125.704C71.5852 126.253 71.063 126.681 70.4522 126.934C69.8414 127.187 69.1694 127.253 68.5211 127.124C67.8728 126.995 67.2773 126.676 66.81 126.209C66.3426 125.741 66.0243 125.146 65.8954 124.497C65.7665 123.849 65.8326 123.177 66.0855 122.566C66.3385 121.955 66.7668 121.433 67.3163 121.066C67.8659 120.699 68.5121 120.503 69.1731 120.502C69.6123 120.502 70.0472 120.589 70.4529 120.757C70.8587 120.925 71.2273 121.172 71.5378 121.482C71.8483 121.793 72.0946 122.161 72.2626 122.567C72.4306 122.973 72.517 123.408 72.5169 123.847Z" fill="#E1147B"/>
<path d="M151.325 139.912C151.334 139.878 151.343 139.842 151.352 139.808C151.483 139.321 151.5 138.809 151.401 138.314C151.302 137.819 151.091 137.353 150.784 136.952C150.476 136.551 150.08 136.227 149.627 136.004C149.174 135.781 148.676 135.665 148.171 135.665H55.2846C54.7795 135.665 54.281 135.78 53.8279 136.004C53.3747 136.227 52.979 136.551 52.6714 136.952C52.3638 137.352 52.1525 137.818 52.054 138.314C51.9554 138.809 51.9722 139.321 52.1031 139.808C52.112 139.842 52.1219 139.878 52.1317 139.912C52.3201 140.612 52.7335 141.23 53.3082 141.672C53.8829 142.113 54.5868 142.353 55.3114 142.354H148.144C148.869 142.353 149.573 142.113 150.147 141.672C150.722 141.23 151.136 140.612 151.325 139.912Z" fill="#E1147B"/>
<path d="M46.6857 139.009C46.6853 139.67 46.489 140.316 46.1215 140.865C45.7539 141.415 45.2317 141.843 44.6209 142.096C44.01 142.349 43.3379 142.415 42.6896 142.285C42.0413 142.156 41.4458 141.838 40.9784 141.37C40.5111 140.902 40.1929 140.307 40.0641 139.658C39.9353 139.01 40.0016 138.338 40.2546 137.727C40.5077 137.117 40.9361 136.595 41.4858 136.227C42.0355 135.86 42.6818 135.664 43.3428 135.664C44.2296 135.665 45.0798 136.017 45.7067 136.644C46.3335 137.271 46.6857 138.122 46.6857 139.009Z" fill="#E1147B"/>
<path d="M72.5169 154.17C72.5165 154.831 72.3202 155.477 71.9527 156.027C71.5852 156.576 71.063 157.005 70.4522 157.257C69.8414 157.51 69.1694 157.576 68.5211 157.447C67.8728 157.318 67.2773 156.999 66.81 156.532C66.3426 156.065 66.0243 155.469 65.8954 154.821C65.7665 154.172 65.8326 153.5 66.0855 152.89C66.3385 152.279 66.7668 151.757 67.3163 151.389C67.8659 151.022 68.5121 150.826 69.1731 150.826C70.06 150.826 70.9105 151.178 71.5376 151.806C72.1646 152.433 72.5169 153.283 72.5169 154.17Z" fill="#E1147B"/>
<path d="M129.42 184.494C129.419 185.155 129.223 185.801 128.856 186.35C128.488 186.9 127.966 187.328 127.355 187.581C126.744 187.833 126.072 187.899 125.424 187.77C124.776 187.641 124.18 187.323 123.713 186.855C123.246 186.388 122.927 185.792 122.798 185.144C122.669 184.495 122.736 183.823 122.988 183.213C123.241 182.602 123.67 182.08 124.219 181.713C124.769 181.345 125.415 181.149 126.076 181.149C126.515 181.149 126.95 181.235 127.356 181.404C127.762 181.572 128.13 181.818 128.441 182.129C128.751 182.439 128.998 182.808 129.166 183.214C129.334 183.619 129.42 184.054 129.42 184.494Z" fill="#E1147B"/>
<path d="M94.4564 199.655C94.4561 200.317 94.2598 200.963 93.8922 201.512C93.5247 202.062 93.0025 202.49 92.3916 202.743C91.7808 202.995 91.1087 203.061 90.4604 202.932C89.812 202.803 89.2165 202.484 88.7492 202.017C88.2819 201.549 87.9637 200.954 87.8349 200.305C87.706 199.657 87.7723 198.985 88.0254 198.374C88.2784 197.763 88.7069 197.241 89.2566 196.874C89.8063 196.507 90.4525 196.311 91.1136 196.311C91.5527 196.311 91.9875 196.398 92.3932 196.566C92.7988 196.734 93.1674 196.98 93.4778 197.291C93.7882 197.601 94.0344 197.97 94.2023 198.376C94.3702 198.782 94.4566 199.216 94.4564 199.655Z" fill="#E1147B"/>
</svg>
