<svg width="256" height="256" viewBox="0 0 256 256" fill="none" xmlns="http://www.w3.org/2000/svg">
<path d="M128 256C198.692 256 256 198.692 256 128C256 57.3076 198.692 0 128 0C57.3076 0 0 57.3076 0 128C0 198.692 57.3076 256 128 256Z" fill="#FF0420"/>
<path d="M90.6921 162.02C83.0704 162.02 76.8261 160.227 71.9585 156.64C67.1549 152.99 64.7531 147.802 64.7531 141.077C64.7531 139.668 64.9134 137.938 65.2334 135.889C66.0664 131.278 67.2512 125.737 68.7882 119.269C73.1433 101.656 84.3837 92.8496 102.509 92.8496C107.441 92.8496 111.86 93.6821 115.767 95.3471C119.674 96.9482 122.748 99.3822 124.989 102.649C127.231 105.851 128.352 109.694 128.352 114.177C128.352 115.522 128.192 117.219 127.871 119.269C126.911 124.969 125.758 130.509 124.413 135.889C122.171 144.663 118.297 151.228 112.788 155.583C107.28 159.874 99.9152 162.02 90.6921 162.02ZM92.0371 148.186C95.6242 148.186 98.666 147.129 101.164 145.016C103.726 142.902 105.551 139.668 106.64 135.313C108.113 129.292 109.234 124.04 110.003 119.557C110.259 118.212 110.387 116.835 110.387 115.426C110.387 109.598 107.344 106.683 101.26 106.683C97.6732 106.683 94.5991 107.74 92.0371 109.854C89.5396 111.968 87.746 115.202 86.6575 119.557C85.5045 123.848 84.3515 129.1 83.199 135.313C82.9424 136.593 82.8144 137.938 82.8144 139.347C82.8144 145.24 85.889 148.186 92.0371 148.186Z" fill="white"/>
<path d="M132.763 161.06C132.059 161.06 131.514 160.835 131.13 160.387C130.809 159.874 130.714 159.298 130.842 158.658L144.099 96.2118C144.227 95.5073 144.58 94.9308 145.156 94.4823C145.733 94.0343 146.341 93.8101 146.981 93.8101H172.536C179.645 93.8101 185.346 95.2831 189.637 98.2291C193.992 101.176 196.17 105.435 196.17 111.007C196.17 112.608 195.978 114.273 195.593 116.002C193.992 123.368 190.758 128.812 185.89 132.334C181.087 135.857 174.49 137.618 166.099 137.618H153.13L148.711 158.658C148.582 159.362 148.23 159.938 147.654 160.387C147.078 160.835 146.469 161.06 145.829 161.06H132.763ZM166.772 124.361C169.462 124.361 171.8 123.624 173.785 122.151C175.835 120.678 177.18 118.564 177.82 115.81C178.012 114.721 178.108 113.761 178.108 112.928C178.108 111.071 177.564 109.662 176.475 108.701C175.386 107.676 173.529 107.164 170.903 107.164H159.374L155.724 124.361H166.772Z" fill="white"/>
</svg>
