<svg width="257" height="256" viewBox="0 0 257 256" fill="none" xmlns="http://www.w3.org/2000/svg">
  <path d="M128.513 256C199.208 256 256.513 198.694 256.513 128C256.513 57.3056 199.208 0 128.513 0C57.819 0 0.513428 57.3056 0.513428 128C0.513428 198.694 57.819 256 128.513 256Z" fill="#8247E5"/>
  <path d="M174.604 94.869C171.328 92.8749 167.117 92.8749 163.374 94.869L137.173 111.321L119.393 121.79L93.6595 138.241C90.3843 140.235 86.1733 140.235 82.4302 138.241L62.3112 125.279C59.036 123.285 56.6966 119.297 56.6966 114.81V89.8837C56.6966 85.8954 58.5681 81.9072 62.3112 79.4145L82.4302 66.9512C85.7054 64.9571 89.9164 64.9571 93.6595 66.9512L113.779 79.913C117.054 81.9072 119.393 85.8954 119.393 90.3822V106.834L137.173 95.866V78.916C137.173 74.9277 135.301 70.9395 131.558 68.4468L94.1274 45.0159C90.8522 43.0217 86.6412 43.0217 82.8981 45.0159L44.5316 68.9454C40.7885 70.9395 38.9169 74.9277 38.9169 78.916V125.778C38.9169 129.766 40.7885 133.754 44.5316 136.247L82.4302 159.678C85.7054 161.672 89.9164 161.672 93.6595 159.678L119.393 143.725L137.173 132.757L162.906 116.804C166.182 114.81 170.393 114.81 174.136 116.804L194.255 129.268C197.53 131.262 199.869 135.25 199.869 139.737V164.663C199.869 168.652 197.998 172.64 194.255 175.132L174.604 187.596C171.328 189.59 167.117 189.59 163.374 187.596L143.255 175.132C139.98 173.138 137.641 169.15 137.641 164.663V148.71L119.861 159.678V176.13C119.861 180.118 121.733 184.106 125.476 186.599L163.374 210.03C166.65 212.024 170.861 212.024 174.604 210.03L212.502 186.599C215.777 184.605 218.117 180.616 218.117 176.13V128.769C218.117 124.781 216.245 120.793 212.502 118.3L174.604 94.869Z" fill="white"/>
</svg>
