<svg width="256" height="256" viewBox="0 0 256 256" fill="none" xmlns="http://www.w3.org/2000/svg">
  <path d="M128 256C198.694 256 256 198.694 256 128C256 57.3056 198.694 0 128 0C57.3056 0 0 57.3056 0 128C0 198.694 57.3056 256 128 256Z" fill="#272C33"/>
  <path fill-rule="evenodd" clip-rule="evenodd" d="M74.1778 169.515C74.7057 168.897 75.3484 168.403 76.0655 168.065C76.7819 167.726 77.5578 167.552 78.3415 167.551L206.812 167.663C207.36 167.664 207.894 167.835 208.352 168.154C208.81 168.473 209.171 168.927 209.392 169.46C209.612 169.993 209.682 170.584 209.594 171.159C209.506 171.734 209.263 172.27 208.894 172.701L181.536 204.797C181.008 205.415 180.364 205.91 179.647 206.248C178.93 206.587 178.154 206.761 177.369 206.761L48.9016 206.649C48.3545 206.648 47.8195 206.478 47.3616 206.159C46.9036 205.84 46.5425 205.386 46.3221 204.852C46.1015 204.319 46.0312 203.728 46.1196 203.153C46.2079 202.578 46.4512 202.043 46.8198 201.612L74.1778 169.515ZM208.894 142.796C209.263 143.227 209.506 143.763 209.594 144.338C209.682 144.913 209.612 145.504 209.392 146.037C209.171 146.57 208.81 147.024 208.352 147.343C207.894 147.662 207.36 147.832 206.812 147.834L78.345 147.946C77.5606 147.946 76.7847 147.771 76.0669 147.433C75.3491 147.094 74.7057 146.6 74.1778 145.982L46.8198 113.866C46.4512 113.435 46.2079 112.9 46.1196 112.325C46.0312 111.75 46.1015 111.159 46.3221 110.626C46.5425 110.092 46.9036 109.638 47.3616 109.319C47.8195 109.001 48.3545 108.83 48.9016 108.829L177.372 108.717C178.156 108.718 178.932 108.892 179.649 109.231C180.366 109.569 181.009 110.063 181.536 110.681L208.894 142.796ZM74.1778 51.8842C74.7057 51.266 75.3484 50.7719 76.0655 50.4337C76.7819 50.0955 77.5578 49.9204 78.3415 49.9199L206.812 50.032C207.36 50.0331 207.894 50.2036 208.352 50.5226C208.81 50.8416 209.171 51.2953 209.392 51.8288C209.612 52.3624 209.682 52.9526 209.594 53.5279C209.506 54.1031 209.263 54.6386 208.894 55.0695L181.536 87.166C181.008 87.7844 180.364 88.2788 179.647 88.6172C178.93 88.9555 178.154 89.1303 177.369 89.1303L48.9016 89.0182C48.3545 89.0168 47.8195 88.8465 47.3616 88.5275C46.9036 88.2086 46.5425 87.7545 46.3221 87.2213C46.1015 86.688 46.0312 86.0973 46.1196 85.5222C46.2079 84.9471 46.4512 84.4116 46.8198 83.9806L74.1778 51.8842Z" fill="url(#paint0_linear_518_3772)"/>
  <defs>
    <linearGradient id="paint0_linear_518_3772" x1="51.0466" y1="210.182" x2="214.4" y2="56.8698" gradientUnits="userSpaceOnUse">
      <stop stop-color="#9945FF"/>
      <stop offset="0.2" stop-color="#7962E7"/>
      <stop offset="1" stop-color="#00D18C"/>
    </linearGradient>
  </defs>
</svg>
