<svg width="256" height="256" viewBox="0 0 256 256" fill="none" xmlns="http://www.w3.org/2000/svg">
<path fill-rule="evenodd" clip-rule="evenodd" d="M18.8719 194.93C20.9769 198.355 23.2387 201.674 25.6471 204.875L41.3708 195.797C38.897 192.641 36.592 189.345 34.4693 185.925L18.8719 194.93ZM224.936 75.9595C226.831 79.4833 228.54 83.1222 230.05 86.8632L245.775 77.7846C244.194 74.0815 242.443 70.4682 240.533 66.9543L224.936 75.9595ZM234.312 56.6897L218.68 65.7149C216.387 62.3832 213.915 59.1841 211.279 56.1316L227.109 46.9917C229.657 50.1055 232.062 53.3415 234.312 56.6897ZM28.7063 175.396L13.074 184.421C11.3029 180.821 9.69602 177.124 8.26315 173.343L24.096 164.202C25.4311 168.034 26.9723 171.77 28.7063 175.396ZM1.56467 107.928C2.41911 102.503 3.61437 97.1906 5.12784 92.0143L30.2446 77.5132C27.2607 83.2791 24.7719 89.3427 22.8346 95.6477L1.56467 107.928ZM46.2176 54.4348C61.5136 37.4412 82.0303 25.2401 105.242 20.3571L139.603 0.518788C135.781 0.175408 131.911 0 128 0C76.4741 0 32.0591 30.445 11.7626 74.3274L46.2176 54.4348ZM152.558 20.7517C146.268 19.3172 139.772 18.4219 133.122 18.1171L158.267 3.59946C163.6 4.89255 168.803 6.51972 173.852 8.45756L152.558 20.7517ZM107.832 254.42C114.402 255.46 121.138 256 128 256C182.58 256 229.181 221.839 247.589 173.732L218.522 190.513C200.253 216.918 170.729 234.941 136.885 237.646L107.832 254.42ZM229.585 170.269L252.721 156.912C253.877 151.905 254.739 146.786 255.289 141.574L235.092 153.234C233.713 159.108 231.864 164.8 229.585 170.269ZM113.837 237.097L90.6715 250.471C85.6737 248.95 80.8055 247.131 76.0876 245.035L96.3025 233.364C101.969 235.067 107.827 236.324 113.837 237.097ZM4.47535 161.673C3.38097 157.649 2.47797 153.546 1.77673 149.375L18.6102 139.656C19.0627 143.952 19.7625 148.174 20.695 152.309L4.47535 161.673ZM202.683 47.2378C199.548 44.3376 196.245 41.6176 192.788 39.0944L209.607 29.3838C212.841 32.0629 215.941 34.898 218.895 37.8776L202.683 47.2378ZM181.404 31.8105L199.137 21.5721C195.335 19.0256 191.389 16.6774 187.313 14.5424L168.2 25.5772C172.758 27.3674 177.167 29.453 181.404 31.8105ZM0.270447 136.388L18.0154 126.143C18.0971 121.207 18.5038 116.351 19.2152 111.594L0.110865 122.624C0.0371971 124.407 0 126.199 0 128C0 130.818 0.0910766 133.615 0.270447 136.388ZM52.1704 231.131C55.7681 233.781 59.5095 236.247 63.3807 238.515L81.8232 227.868C77.5471 225.887 73.4197 223.64 69.4622 221.148L52.1704 231.131ZM237.924 123.886C237.975 125.251 238 126.623 238 128C238 131.356 237.85 134.676 237.556 137.955L255.998 127.308C255.974 122.777 255.715 118.302 255.232 113.894L237.924 123.886ZM253.193 101.214L236.657 110.761C235.998 106.574 235.103 102.464 233.985 98.4477L250.012 89.1945C251.26 93.1223 252.324 97.1323 253.193 101.214ZM58.7539 213.474L42.2295 223.014C39.1527 220.235 36.2115 217.308 33.4171 214.246L49.4394 204.995C52.3791 207.994 55.4891 210.826 58.7539 213.474Z" fill="#B3BDC7"/>
<circle cx="128" cy="128" r="100" fill="#272C33"/>
<path d="M189.239 79.9373L191.239 82.0927L189.49 84.4568C132.779 161.134 100.11 195.852 86.249 191.196C77.8062 188.359 69.3391 179.83 60.8719 167.444C57.8957 163.09 55.101 158.506 52.5592 153.944C50.8666 150.906 49.4339 148.135 48.6901 146.575C47.7412 144.584 47.3406 143.358 47.0227 141.747C47.0033 141.648 47.0033 141.648 46.9849 141.554C46.8522 140.87 46.8063 140.654 46.7072 140.28C45.0007 133.849 44.1279 127.185 44.1279 120.41C44.1279 77.7278 78.7286 43.1271 121.411 43.1271C134.782 43.1271 147.668 46.5302 159.088 52.9185L159.383 53.103C168.733 59.6126 178.678 68.5572 189.239 79.9373ZM155.475 59.0219C145.144 53.276 133.504 50.2172 121.411 50.2172C82.6444 50.2172 51.2181 81.6435 51.2181 120.41C51.2181 126.57 52.0108 132.622 53.5602 138.462C53.7134 139.039 53.7827 139.365 53.9453 140.203C53.9623 140.291 53.9623 140.291 53.9787 140.374C54.1839 141.414 54.4003 142.076 55.0903 143.524C55.7689 144.948 57.1326 147.585 58.7529 150.493C61.1959 154.878 63.8805 159.282 66.7251 163.443C74.3751 174.633 81.9619 182.276 88.5068 184.474C97.236 187.407 130.098 152.62 182.031 82.6155C172.602 72.6635 163.745 64.7989 155.475 59.0219Z" fill="black"/>
<path d="M155.475 59.0219C145.144 53.276 133.503 50.2173 121.41 50.2173C82.6441 50.2173 51.2178 81.6436 51.2178 120.41C51.2178 126.57 52.0105 132.622 53.5599 138.462C53.7131 139.039 53.7824 139.365 53.9449 140.203C53.962 140.291 53.962 140.291 53.9784 140.375C54.1835 141.414 54.4 142.076 55.09 143.524C55.7686 144.948 57.1323 147.585 58.7525 150.493C61.1956 154.878 63.8802 159.282 66.7248 163.443C74.3748 174.633 81.9616 182.276 88.5065 184.475C97.2357 187.407 130.097 152.62 182.031 82.6156C172.602 72.6636 163.745 64.7989 155.475 59.0219Z" fill="#EC1C79"/>
<path d="M135.591 211.873C92.9093 211.873 58.3086 177.272 58.3086 134.59C58.3086 91.908 92.9093 57.3073 135.591 57.3073C178.273 57.3073 212.874 91.908 212.874 134.59C212.874 177.272 178.273 211.873 135.591 211.873ZM135.591 204.783C174.358 204.783 205.784 173.356 205.784 134.59C205.784 95.8238 174.358 64.3975 135.591 64.3975C96.8251 64.3975 65.3988 95.8238 65.3988 134.59C65.3988 173.356 96.8251 204.783 135.591 204.783Z" fill="black"/>
<path d="M135.591 204.783C174.357 204.783 205.784 173.356 205.784 134.59C205.784 95.8238 174.357 64.3975 135.591 64.3975C96.8247 64.3975 65.3984 95.8238 65.3984 134.59C65.3984 173.356 96.8247 204.783 135.591 204.783Z" fill="white"/>
<path fill-rule="evenodd" clip-rule="evenodd" d="M83.0839 148.969L73.793 120.977H81.9325L86.7765 137.057L92.1366 120.898H98.7674L104.128 137.057L108.972 120.977H116.952L107.661 148.969H100.951L95.3527 132.968L89.794 148.969H83.0839ZM120.009 148.77V120.977H142.363V127.528H127.633V131.737H140.974V137.812H127.633V142.219H142.562V148.77H120.009ZM153.282 148.77V127.727H144.944V120.977H169.323V127.727H160.985V148.77H153.282ZM172.698 148.77V120.977H180.401V131.38H190.287V120.977H197.99V148.77H190.287V138.209H180.401V148.77H172.698Z" fill="black"/>
<path d="M48.7328 112.617C46.7715 111.636 45.9765 109.251 46.9572 107.29C47.9378 105.329 50.3228 104.534 52.2841 105.514L63.6284 111.186C65.5897 112.167 66.3847 114.552 65.404 116.513C64.4234 118.475 62.0384 119.27 60.0771 118.289L48.7328 112.617Z" fill="black"/>
<path d="M47.4278 131.427C45.4367 130.508 44.5676 128.149 45.4865 126.158C46.4054 124.167 48.7643 123.298 50.7554 124.217L62.0996 129.452C64.0906 130.371 64.9598 132.73 64.0409 134.721C63.122 136.712 60.7631 137.581 58.772 136.662L47.4278 131.427Z" fill="black"/>
</svg>
