<svg width="200" height="200" viewBox="0 0 200 200" fill="none" xmlns="http://www.w3.org/2000/svg">
<circle cx="100" cy="100" r="100" fill="#F7931A"/>
<path d="M121.172 85.7283C118.017 98.0896 98.955 91.692 92.7739 90.1141L98.3579 68.2401C104.539 69.818 124.464 72.8205 121.172 85.7283ZM117.575 121.043C114.113 134.641 91.2301 127.148 83.7947 125.254L90.0271 101.179C97.4351 103.081 121.273 106.884 117.646 121.082L117.575 121.043ZM142.91 86.0841C144.986 72.7892 134.893 65.6018 121.073 60.7304L125.669 42.735L114.704 39.9277L110.225 57.4572C107.359 56.7215 104.4 56.0277 101.46 55.3436L105.861 37.7028L94.934 34.8697L90.3484 52.8474C87.9543 52.3004 85.615 51.7373 83.3483 51.1677L68.2453 47.2988L65.2581 59.0153C65.2581 59.0153 73.4158 60.9353 73.1949 61.0449C76.3548 61.4376 78.6174 64.2897 78.2808 67.4558L73.1275 87.908C73.5132 88.006 73.8923 88.1283 74.2625 88.2742L73.1065 87.9886L65.7145 116.677C65.0132 118.783 62.7437 119.929 60.6324 119.242C60.792 119.329 52.6779 117.203 52.6779 117.203L47.1578 129.723L61.4193 133.363L69.2674 135.345L64.6383 153.529L75.585 156.326L80.0964 138.4C82.9871 139.218 85.9067 139.983 88.8184 140.72L84.2344 158.653L95.1812 161.45L99.8457 143.286C118.563 146.941 132.606 145.583 138.617 128.705C143.444 115.093 138.527 107.233 128.742 102.054C135.923 100.45 141.369 95.7824 142.839 86.0454L142.91 86.0841Z" fill="white"/>
</svg>
