<svg width="256" height="256" viewBox="0 0 256 256" fill="none" xmlns="http://www.w3.org/2000/svg">
  <path d="M128 0C198.699 0 256 57.3126 256 128C256 198.699 198.699 256 128 256C57.3126 256 0 198.693 0 128C0 57.3126 57.3126 0 128 0Z" fill="#F5AC37"/>
  <path d="M132.675 137.039H181.313C182.35 137.039 182.839 137.039 182.914 135.679C183.312 130.731 183.312 125.755 182.914 120.801C182.914 119.839 182.436 119.442 181.394 119.442H84.5959C83.3978 119.442 83.0752 119.839 83.0752 120.962V135.201C83.0752 137.039 83.0752 137.039 84.9933 137.039H132.675ZM177.483 102.801C177.621 102.438 177.621 102.04 177.483 101.683C176.67 99.915 175.708 98.2273 174.591 96.6433C172.909 93.9361 170.928 91.442 168.67 89.2013C167.604 87.8477 166.371 86.6323 164.989 85.6013C158.065 79.7087 149.834 75.5384 140.987 73.4418C136.523 72.4395 131.961 71.9615 127.387 72.0018H84.4288C83.2308 72.0018 83.0695 72.4799 83.0695 73.5224V101.92C83.0695 103.118 83.0695 103.44 84.5901 103.44H176.907C176.907 103.44 177.707 103.279 177.868 102.801H177.477H177.483ZM177.483 153.679C176.123 153.53 174.752 153.53 173.393 153.679H84.6765C83.4784 153.679 83.0752 153.679 83.0752 155.281V183.044C83.0752 184.323 83.0752 184.645 84.6765 184.645H125.636C127.595 184.795 129.553 184.657 131.471 184.248C137.416 183.822 143.262 182.532 148.838 180.406C150.865 179.703 152.824 178.787 154.673 177.687H155.231C164.833 172.693 172.633 164.848 177.552 155.217C177.552 155.217 178.11 154.008 177.483 153.691V153.679ZM66.9989 199.04V198.562V179.922V173.603V154.803C66.9989 153.76 66.9989 153.604 65.7202 153.604H48.3594C47.3974 153.604 47 153.604 47 152.326V137.125H65.5589C66.5957 137.125 66.9989 137.125 66.9989 135.766V120.726C66.9989 119.764 66.9989 119.528 65.7202 119.528H48.3594C47.3974 119.528 47 119.528 47 118.249V104.172C47 103.29 47 103.054 48.2787 103.054H65.4783C66.6764 103.054 66.9989 103.054 66.9989 101.534V58.4138C66.9989 57.1351 66.9989 56.8125 68.6002 56.8125H128.597C132.952 56.9853 137.277 57.4634 141.557 58.2525C150.376 59.8826 158.849 63.0334 166.596 67.532C171.734 70.556 176.463 74.2079 180.674 78.4127C183.842 81.7017 186.699 85.2614 189.233 89.0515C191.75 92.8935 193.841 97.0004 195.483 101.292C195.684 102.409 196.756 103.164 197.873 102.974H212.193C214.03 102.974 214.03 102.974 214.111 104.736V117.858C214.111 119.136 213.633 119.459 212.348 119.459H201.306C200.189 119.459 199.866 119.459 199.947 120.899C200.385 125.772 200.385 130.662 199.947 135.535C199.947 136.895 199.947 137.056 201.473 137.056H214.105C214.664 137.776 214.105 138.496 214.105 139.222C214.186 140.149 214.186 141.088 214.105 142.015V151.698C214.105 153.057 213.708 153.461 212.504 153.461H197.384C196.329 153.259 195.304 153.933 195.062 154.981C191.462 164.341 185.702 172.734 178.26 179.461C175.541 181.909 172.684 184.213 169.701 186.339C166.498 188.182 163.382 190.1 160.099 191.621C154.056 194.34 147.72 196.344 141.217 197.617C135.042 198.723 128.781 199.224 122.497 199.138H66.9759V199.057L66.9989 199.04Z" fill="#FEFEFD"/>
</svg>
