<svg width="256" height="256" viewBox="0 0 256 256" fill="none" xmlns="http://www.w3.org/2000/svg">
<path fill-rule="evenodd" clip-rule="evenodd" d="M18.8719 194.93C20.9769 198.355 23.2387 201.674 25.6471 204.875L41.3708 195.797C38.897 192.641 36.592 189.345 34.4693 185.925L18.8719 194.93ZM224.936 75.9595C226.831 79.4833 228.54 83.1222 230.05 86.8632L245.775 77.7846C244.194 74.0815 242.443 70.4682 240.533 66.9543L224.936 75.9595ZM234.312 56.6897L218.68 65.7149C216.387 62.3832 213.915 59.1841 211.279 56.1316L227.109 46.9917C229.657 50.1055 232.062 53.3415 234.312 56.6897ZM28.7063 175.396L13.074 184.421C11.3029 180.821 9.69602 177.124 8.26315 173.343L24.096 164.202C25.4311 168.034 26.9723 171.77 28.7063 175.396ZM1.56467 107.928C2.41911 102.503 3.61437 97.1906 5.12784 92.0143L30.2446 77.5132C27.2607 83.2791 24.7719 89.3427 22.8346 95.6477L1.56467 107.928ZM46.2176 54.4348C61.5136 37.4412 82.0303 25.2401 105.242 20.3571L139.603 0.518788C135.781 0.175408 131.911 0 128 0C76.4741 0 32.0591 30.445 11.7626 74.3274L46.2176 54.4348ZM152.558 20.7517C146.268 19.3172 139.772 18.4219 133.122 18.1171L158.267 3.59946C163.6 4.89255 168.803 6.51972 173.852 8.45756L152.558 20.7517ZM107.832 254.42C114.402 255.46 121.138 256 128 256C182.58 256 229.181 221.839 247.589 173.732L218.522 190.513C200.253 216.918 170.729 234.941 136.885 237.646L107.832 254.42ZM229.585 170.269L252.721 156.912C253.877 151.905 254.739 146.786 255.289 141.574L235.092 153.234C233.713 159.108 231.864 164.8 229.585 170.269ZM113.837 237.097L90.6715 250.471C85.6737 248.95 80.8055 247.131 76.0876 245.035L96.3025 233.364C101.969 235.067 107.827 236.324 113.837 237.097ZM4.47535 161.673C3.38097 157.649 2.47797 153.546 1.77673 149.375L18.6102 139.656C19.0627 143.952 19.7625 148.174 20.695 152.309L4.47535 161.673ZM202.683 47.2378C199.548 44.3376 196.245 41.6176 192.788 39.0944L209.607 29.3838C212.841 32.0629 215.941 34.898 218.895 37.8776L202.683 47.2378ZM181.404 31.8105L199.137 21.5721C195.335 19.0256 191.389 16.6774 187.313 14.5424L168.2 25.5772C172.758 27.3674 177.167 29.453 181.404 31.8105ZM0.270447 136.388L18.0154 126.143C18.0971 121.207 18.5038 116.351 19.2152 111.594L0.110865 122.624C0.0371971 124.407 0 126.199 0 128C0 130.818 0.0910766 133.615 0.270447 136.388ZM52.1704 231.131C55.7681 233.781 59.5095 236.247 63.3807 238.515L81.8232 227.868C77.5471 225.887 73.4197 223.64 69.4622 221.148L52.1704 231.131ZM237.924 123.886C237.975 125.251 238 126.623 238 128C238 131.356 237.85 134.676 237.556 137.955L255.998 127.308C255.974 122.777 255.715 118.302 255.232 113.894L237.924 123.886ZM253.193 101.214L236.657 110.761C235.998 106.574 235.103 102.464 233.985 98.4477L250.012 89.1945C251.26 93.1223 252.324 97.1323 253.193 101.214ZM58.7539 213.474L42.2295 223.014C39.1527 220.235 36.2115 217.308 33.4171 214.246L49.4394 204.995C52.3791 207.994 55.4891 210.826 58.7539 213.474Z" fill="#B3BDC7"/>
<path fill-rule="evenodd" clip-rule="evenodd" d="M230.05 86.8633C228.541 83.1223 226.832 79.4834 224.936 75.9596L240.534 66.9544C242.444 70.4683 244.194 74.0816 245.775 77.7847L230.05 86.8633ZM218.68 65.715L234.312 56.6898C232.062 53.3416 229.658 50.1056 227.11 46.9918L211.279 56.1317C213.916 59.1842 216.387 62.3833 218.68 65.715ZM133.122 18.1172C139.772 18.422 146.268 19.3172 152.559 20.7518L173.853 8.45765C168.804 6.51981 163.601 4.89264 158.267 3.59955L133.122 18.1172ZM252.722 156.912L229.586 170.27C231.864 164.801 233.714 159.108 235.092 153.234L255.289 141.574C254.74 146.786 253.878 151.905 252.722 156.912ZM192.788 39.0945C196.245 41.6177 199.549 44.3377 202.684 47.2378L218.896 37.8777C215.941 34.8981 212.841 32.063 209.608 29.3839L192.788 39.0945ZM199.138 21.5722L181.404 31.8106C177.167 29.4531 172.758 27.3675 168.201 25.5773L187.314 14.5425C191.389 16.6775 195.336 19.0257 199.138 21.5722ZM238.001 128C238.001 126.623 237.975 125.251 237.925 123.886L255.232 113.894C255.715 118.302 255.975 122.777 255.999 127.308L237.556 137.955C237.85 134.676 238.001 131.356 238.001 128ZM236.658 110.761L253.193 101.214C252.324 97.1324 251.261 93.1224 250.013 89.1945L233.985 98.4478C235.103 102.464 235.998 106.574 236.658 110.761Z" fill="#2D374B"/>
<path fill-rule="evenodd" clip-rule="evenodd" d="M25.6471 204.875C23.2387 201.674 20.9769 198.355 18.8719 194.93L34.4693 185.925C36.592 189.345 38.897 192.641 41.3708 195.797L25.6471 204.875ZM13.074 184.421L28.7063 175.396C26.9723 171.77 25.4311 168.034 24.096 164.201L8.26315 173.343C9.69602 177.124 11.3029 180.821 13.074 184.421ZM5.12784 92.0143C3.61437 97.1905 2.41911 102.503 1.56467 107.928L22.8346 95.6477C24.7719 89.3427 27.2607 83.279 30.2446 77.5131L5.12784 92.0143ZM90.6715 250.471L113.837 237.097C107.827 236.324 101.969 235.066 96.3025 233.364L76.0876 245.035C80.8055 247.131 85.6737 248.95 90.6715 250.471ZM1.77673 149.375C2.47797 153.546 3.38097 157.649 4.47535 161.673L20.695 152.309C19.7625 148.174 19.0627 143.952 18.6102 139.656L1.77673 149.375ZM18.0154 126.143L0.270447 136.388C0.0910766 133.615 0 130.818 0 128C0 126.199 0.0371971 124.407 0.110865 122.624L19.2152 111.594C18.5038 116.351 18.0971 121.207 18.0154 126.143ZM63.3807 238.515C59.5095 236.247 55.7681 233.781 52.1704 231.131L69.4622 221.148C73.4197 223.64 77.5471 225.887 81.8232 227.867L63.3807 238.515ZM42.2295 223.014L58.7539 213.474C55.4891 210.826 52.3791 207.994 49.4394 204.995L33.4171 214.246C36.2115 217.308 39.1527 220.235 42.2295 223.014Z" fill="#28A0F0"/>
<path d="M128 228C183.23 228 228 183.23 228 128C228 72.77 183.23 28 128 28C72.77 28 28 72.77 28 128C28 183.23 72.77 228 128 228Z" fill="#627EEA"/>
<path d="M128.084 48L82 129.483L128.084 107.165V48Z" fill="white"/>
<path d="M128.084 107.165L82 129.483L128.084 158.515V107.165Z" fill="#C0CBF6"/>
<path d="M174.178 129.483L128.085 48V107.165L174.178 129.483Z" fill="#C0CBF6"/>
<path d="M128.085 158.515L174.178 129.483L128.085 107.165V158.515Z" fill="#8197EE"/>
<path d="M82 138.799L128.084 208V167.813L82 138.799Z" fill="white"/>
<path d="M128.085 167.813V208L174.203 138.799L128.085 167.813Z" fill="#C0CBF6"/>
</svg>
