<svg width="257" height="256" viewBox="0 0 257 256" fill="none" xmlns="http://www.w3.org/2000/svg">
  <path d="M128.513 256C199.206 256 256.513 198.692 256.513 128C256.513 57.3076 199.206 0 128.513 0C57.821 0 0.513428 57.3076 0.513428 128C0.513428 198.692 57.821 256 128.513 256Z" fill="#272C33"/>
  <path d="M150.097 200.688V225.359L128.587 238L107.688 225.359V200.688L128.587 213.329L150.097 200.688ZM35 115.359L55.899 128V170.308L91.886 191.818V216.489L35 182.949V115.359ZM222.173 115.359V183.051L164.676 216.591V191.92L200.663 170.41V128.102L222.173 115.359ZM164.574 81.8183L186.084 94.4597V119.131L150.097 140.641V183.561L129.198 196.202L108.401 183.561V140.539L71.089 119.029V94.3577L92.5996 81.7164L128.587 103.227L164.574 81.8183ZM71.089 136.767L91.988 149.409V174.08L71.089 161.438V136.767ZM186.084 136.767V161.438L165.185 174.08V149.409L186.084 136.767ZM55.899 60.3077L77.4096 72.949L55.899 85.5903V110.261L35 97.62V72.949L55.899 60.3077ZM201.274 60.3077L222.785 72.949V97.62L201.274 110.261V85.5903L180.375 72.949L201.274 60.3077ZM128.587 60.3077L150.097 72.949L128.587 85.5903L107.688 72.949L128.587 60.3077ZM128.587 18L186.084 51.5403L165.185 64.1816L129.198 42.671L92.4977 64.1816L71.5987 51.5403L128.587 18Z" fill="#F3BA2F"/>
</svg>
