<svg width="256" height="256" viewBox="0 0 219 256" fill="none" xmlns="http://www.w3.org/2000/svg">
  <path d="M133.931 212.582V241.29L108.901 256L84.582 241.29V212.582L108.901 227.292L133.931 212.582ZM0 113.29L24.3188 128V177.231L66.1946 202.261V230.969L0 191.941V113.29ZM217.802 113.29V192.059L150.895 231.088V202.38L192.771 177.349V128.119L217.802 113.29ZM150.777 74.2614L175.807 88.9713V117.679L133.931 142.71V192.652L109.613 207.362L85.4124 192.652V142.591L41.9944 117.561V88.8526L67.025 74.1427L108.901 99.1733L150.777 74.2614ZM41.9944 138.202L66.3133 152.912V181.62L41.9944 166.91V138.202ZM175.807 138.202V166.91L151.488 181.62V152.912L175.807 138.202ZM24.3188 49.2308L49.3494 63.9407L24.3188 78.6506V107.359L0 92.6487V63.9407L24.3188 49.2308ZM193.483 49.2308L218.513 63.9407V92.6487L193.483 107.359V78.6506L169.164 63.9407L193.483 49.2308ZM108.901 49.2308L133.931 63.9407L108.901 78.6506L84.582 63.9407L108.901 49.2308ZM108.901 0L175.807 39.0287L151.488 53.7386L109.613 28.708L66.9064 53.7386L42.5876 39.0287L108.901 0Z" fill="#F3BA2F"/>
</svg>
