<svg width="256" height="256" viewBox="0 0 256 256" fill="none" xmlns="http://www.w3.org/2000/svg">
  <circle cx="128" cy="128" r="128" fill="#272C33"/>
  <path fill-rule="evenodd" clip-rule="evenodd" d="M128 200.527C168.056 200.527 200.527 168.056 200.527 128C200.527 87.9442 168.056 55.4725 128 55.4725C87.9442 55.4725 55.4725 87.9442 55.4725 128C55.4725 168.056 87.9442 200.527 128 200.527ZM128 228C183.228 228 228 183.228 228 128C228 72.7715 183.228 28 128 28C72.7715 28 28 72.7715 28 128C28 183.228 72.7715 228 128 228Z" fill="#0E5AFE"/>
  <rect x="103.458" y="103.458" width="49.0843" height="49.0843" rx="24.5421" fill="#0E5AFE"/>
</svg>
