<svg width="258" height="239" viewBox="0 0 258 239" fill="none" xmlns="http://www.w3.org/2000/svg">
  <path d="M244.25 1L144.36 75.1898L162.832 31.4188L244.25 1Z" fill="#E2761B" stroke="#E2761B" stroke-linecap="round" stroke-linejoin="round"/>
  <path d="M13.6494 1L112.737 75.8926L95.1679 31.4188L13.6494 1Z" fill="#E4761B" stroke="#E4761B" stroke-linecap="round" stroke-linejoin="round"/>
  <path d="M208.31 172.972L181.706 213.731L238.628 229.392L254.992 173.875L208.31 172.972Z" fill="#E4761B" stroke="#E4761B" stroke-linecap="round" stroke-linejoin="round"/>
  <path d="M3.10828 173.875L19.3718 229.392L76.2942 213.731L49.6902 172.972L3.10828 173.875Z" fill="#E4761B" stroke="#E4761B" stroke-linecap="round" stroke-linejoin="round"/>
  <path d="M73.0815 104.103L57.2195 128.096L113.74 130.606L111.732 69.869L73.0815 104.103Z" fill="#E4761B" stroke="#E4761B" stroke-linecap="round" stroke-linejoin="round"/>
  <path d="M184.818 104.103L145.665 69.1663L144.36 130.606L200.78 128.097L184.818 104.103Z" fill="#E4761B" stroke="#E4761B" stroke-linecap="round" stroke-linejoin="round"/>
  <path d="M76.2941 213.731L110.227 197.166L80.9121 174.277L76.2941 213.731Z" fill="#E4761B" stroke="#E4761B" stroke-linecap="round" stroke-linejoin="round"/>
  <path d="M147.673 197.166L181.706 213.731L176.987 174.277L147.673 197.166Z" fill="#E4761B" stroke="#E4761B" stroke-linecap="round" stroke-linejoin="round"/>
  <path d="M181.706 213.731L147.673 197.166L150.384 219.353L150.082 228.689L181.706 213.731Z" fill="#D7C1B3" stroke="#D7C1B3" stroke-linecap="round" stroke-linejoin="round"/>
  <path d="M76.2941 213.731L107.918 228.689L107.717 219.353L110.227 197.166L76.2941 213.731Z" fill="#D7C1B3" stroke="#D7C1B3" stroke-linecap="round" stroke-linejoin="round"/>
  <path d="M108.42 159.62L80.1093 151.287L100.087 142.151L108.42 159.62Z" fill="#233447" stroke="#233447" stroke-linecap="round" stroke-linejoin="round"/>
  <path d="M149.48 159.62L157.813 142.151L177.891 151.287L149.48 159.62Z" fill="#233447" stroke="#233447" stroke-linecap="round" stroke-linejoin="round"/>
  <path d="M76.2941 213.731L81.1129 172.972L49.6902 173.875L76.2941 213.731Z" fill="#CD6116" stroke="#CD6116" stroke-linecap="round" stroke-linejoin="round"/>
  <path d="M176.887 172.972L181.706 213.731L208.31 173.875L176.887 172.972Z" fill="#CD6116" stroke="#CD6116" stroke-linecap="round" stroke-linejoin="round"/>
  <path d="M200.78 128.096L144.36 130.606L149.58 159.62L157.913 142.151L177.991 151.287L200.78 128.096Z" fill="#CD6116" stroke="#CD6116" stroke-linecap="round" stroke-linejoin="round"/>
  <path d="M80.109 151.287L100.187 142.151L108.42 159.62L113.74 130.606L57.2196 128.096L80.109 151.287Z" fill="#CD6116" stroke="#CD6116" stroke-linecap="round" stroke-linejoin="round"/>
  <path d="M57.2196 128.096L80.9122 174.277L80.109 151.287L57.2196 128.096Z" fill="#E4751F" stroke="#E4751F" stroke-linecap="round" stroke-linejoin="round"/>
  <path d="M177.991 151.287L176.987 174.277L200.78 128.096L177.991 151.287Z" fill="#E4751F" stroke="#E4751F" stroke-linecap="round" stroke-linejoin="round"/>
  <path d="M113.74 130.606L108.419 159.62L115.045 193.853L116.551 148.777L113.74 130.606Z" fill="#E4751F" stroke="#E4751F" stroke-linecap="round" stroke-linejoin="round"/>
  <path d="M144.36 130.606L141.649 148.677L142.854 193.853L149.58 159.62L144.36 130.606Z" fill="#E4751F" stroke="#E4751F" stroke-linecap="round" stroke-linejoin="round"/>
  <path d="M149.581 159.62L142.854 193.853L147.673 197.166L176.988 174.277L177.992 151.287L149.581 159.62Z" fill="#F6851B" stroke="#F6851B" stroke-linecap="round" stroke-linejoin="round"/>
  <path d="M80.1093 151.287L80.9125 174.277L110.227 197.166L115.046 193.853L108.42 159.62L80.1093 151.287Z" fill="#F6851B" stroke="#F6851B" stroke-linecap="round" stroke-linejoin="round"/>
  <path d="M150.082 228.689L150.384 219.353L147.874 217.144H110.026L107.717 219.353L107.918 228.689L76.2941 213.731L87.3373 222.766L109.725 238.327H148.175L170.663 222.766L181.706 213.731L150.082 228.689Z" fill="#C0AD9E" stroke="#C0AD9E" stroke-linecap="round" stroke-linejoin="round"/>
  <path d="M147.673 197.166L142.854 193.853H115.046L110.227 197.166L107.717 219.353L110.026 217.144H147.874L150.384 219.353L147.673 197.166Z" fill="#161616" stroke="#161616" stroke-linecap="round" stroke-linejoin="round"/>
  <path d="M248.467 80.0086L257 39.0486L244.25 1L147.673 72.68L184.818 104.103L237.323 119.463L248.969 105.91L243.949 102.296L251.98 94.9671L245.756 90.1482L253.788 84.0243L248.467 80.0086Z" fill="#763D16" stroke="#763D16" stroke-linecap="round" stroke-linejoin="round"/>
  <path d="M1 39.0486L9.53333 80.0086L4.11216 84.0243L12.1435 90.1482L6.01961 94.9671L14.051 102.296L9.03137 105.91L20.5765 119.463L73.0816 104.103L110.227 72.68L13.6494 1L1 39.0486Z" fill="#763D16" stroke="#763D16" stroke-linecap="round" stroke-linejoin="round"/>
  <path d="M237.323 119.463L184.818 104.103L200.781 128.096L176.988 174.277L208.31 173.875H254.992L237.323 119.463Z" fill="#F6851B" stroke="#F6851B" stroke-linecap="round" stroke-linejoin="round"/>
  <path d="M73.0817 104.103L20.5766 119.463L3.10834 173.875H49.6903L80.9123 174.277L57.2197 128.096L73.0817 104.103Z" fill="#F6851B" stroke="#F6851B" stroke-linecap="round" stroke-linejoin="round"/>
  <path d="M144.36 130.606L147.673 72.68L162.933 31.4188H95.1682L110.227 72.68L113.741 130.606L114.945 148.878L115.046 193.853H142.854L143.055 148.878L144.36 130.606Z" fill="#F6851B" stroke="#F6851B" stroke-linecap="round" stroke-linejoin="round"/>
</svg>
