<svg width="256" height="256" viewBox="0 0 256 256" fill="none" xmlns="http://www.w3.org/2000/svg">
  <path d="M128.002 219.916C178.765 219.916 219.916 178.765 219.916 128.002C219.916 77.2399 178.765 36.0889 128.002 36.0889C77.2399 36.0889 36.0889 77.2399 36.0889 128.002C36.0889 178.765 77.2399 219.916 128.002 219.916Z" fill="white"/>
  <path d="M0 128.002C0 198.695 57.309 256 128.002 256C198.695 256 256 198.695 256 128.002C256 57.309 198.695 0 128.002 0C57.309 0 0 57.309 0 128.002ZM128.002 208.438C84.7323 208.438 47.6342 173.358 47.6342 130.088C47.6342 119.929 49.5673 108.2 53.0838 99.2917L87.6209 113.999C87.5087 114.479 87.3652 115.107 87.2082 115.825C86.1809 119.193 85.5782 122.677 85.4141 126.195C85.3414 126.892 85.3159 127.593 85.3378 128.294C85.3378 128.455 85.3602 128.612 85.3692 128.774C85.4471 135.121 86.9487 141.37 89.7635 147.06C92.5782 152.75 96.6341 157.735 101.632 161.648C106.63 165.562 112.443 168.303 118.642 169.671C124.841 171.038 131.268 170.997 137.448 169.55L157.076 202.876C147.836 206.562 137.977 208.45 128.029 208.438H128.002ZM202.167 159.83L114.524 122.696L170.729 122.449C168.72 102.059 147.765 85.5083 128.002 85.5083C123.519 85.5028 119.067 86.2457 114.829 87.7061L95.376 54.6582C105.61 49.9706 116.737 47.5515 127.993 47.5669C171.263 47.5669 208.24 83.2925 208.24 126.562C208.24 138.224 206.733 149.886 202.158 159.83" fill="#1896A4"/>
</svg>
