<svg width="256" height="256" viewBox="0 0 256 256" fill="none" xmlns="http://www.w3.org/2000/svg">
  <path d="M128 256C198.692 256 256 198.692 256 128C256 57.3076 198.692 0 128 0C57.3076 0 0 57.3076 0 128C0 198.692 57.3076 256 128 256Z" fill="url(#paint0_linear_523_10001)"/>
  <path d="M219.636 129.559H197.071C197.071 83.5742 159.663 46.2978 113.514 46.2978C67.9363 46.2978 30.8812 82.6616 29.9743 127.859C29.0361 174.579 73.0239 215.149 119.916 215.149H125.815C167.156 215.149 222.565 182.901 231.223 143.61C232.821 136.367 227.08 129.559 219.636 129.559ZM79.9815 131.608C79.9815 137.757 74.9339 142.787 68.7626 142.787C62.5912 142.787 57.5439 137.755 57.5439 131.608V113.523C57.5439 107.374 62.5912 102.344 68.7626 102.344C74.9339 102.344 79.9815 107.374 79.9815 113.523V131.608ZM118.937 131.608C118.937 137.757 113.89 142.787 107.719 142.787C101.547 142.787 96.5003 137.755 96.5003 131.608V113.523C96.5003 107.374 101.549 102.344 107.719 102.344C113.89 102.344 118.937 107.374 118.937 113.523V131.608Z" fill="url(#paint1_linear_523_10001)"/>
  <defs>
    <linearGradient id="paint0_linear_523_10001" x1="128" y1="0" x2="128" y2="256" gradientUnits="userSpaceOnUse">
      <stop stop-color="#534BB1"/>
      <stop offset="1" stop-color="#551BF9"/>
    </linearGradient>
    <linearGradient id="paint1_linear_523_10001" x1="130.725" y1="46.2978" x2="130.725" y2="215.149" gradientUnits="userSpaceOnUse">
      <stop stop-color="white"/>
      <stop offset="1" stop-color="white" stop-opacity="0.82"/>
    </linearGradient>
  </defs>
</svg>
