<svg width="256" height="256" viewBox="0 0 256 256" fill="none" xmlns="http://www.w3.org/2000/svg">
  <rect width="256" height="256" rx="10" fill="#2196F3"/>
  <path d="M73.501 192V192.289L73.7515 192.433L74.001 192C73.7515 192.433 73.7517 192.433 73.7519 192.433L73.7527 192.434L73.7557 192.436L73.7673 192.442L73.8121 192.468C73.8517 192.49 73.9103 192.524 73.9873 192.567C74.1413 192.654 74.3688 192.781 74.6644 192.943C75.2556 193.268 76.119 193.734 77.2102 194.301C79.3924 195.434 82.4869 196.968 86.1384 198.576C93.4334 201.789 102.984 205.312 111.935 206.496C122.443 207.885 132.033 207.499 144.042 206.498C162.488 204.961 175.434 190.294 179.479 177.147C181.926 169.192 181.403 163.91 179.487 155.884C175.773 140.318 164.283 129.567 149.159 124.526C147.561 123.993 145.651 123.367 143.522 122.669C133.639 119.428 119.049 114.645 109.193 110.538C103.217 108.048 94.4685 102.65 93.4985 92.9502C93.2059 90.024 93.6017 85.0753 94.4799 82.1434C95.9419 77.263 100.203 70.3145 109.198 66.4594C116.118 63.4938 127.887 61.5205 137.859 64.4791C145.537 66.7573 153.238 69.6664 157.516 76.1722L159.504 95.0521L159.551 95.4998H160.001H174.001H174.501L174.501 94.9997L174.5 64.9992L174.5 64.7458L174.295 64.596C166.775 59.0805 161.171 55.8826 156.471 53.7759C152.34 51.9246 148.914 50.9203 145.534 49.9296C145.07 49.7935 144.606 49.6577 144.142 49.52C133.924 46.4883 119.941 47.5038 111.939 48.5036C106.913 49.1315 101.102 51.4118 96.0581 54.1481C91.0228 56.8798 86.6734 60.1095 84.6106 62.6872C84.41 62.9379 84.1201 63.256 83.7632 63.6475C82.4744 65.0615 80.3122 67.4338 78.3287 71.0511C75.783 75.6937 73.5005 82.4151 73.5 91.9996C73.4995 102.204 78.6353 111.06 83.6744 115.379C96.7352 126.574 112.385 131.71 121.753 134.785C122.489 135.026 123.187 135.255 123.842 135.474C127.528 136.702 130.836 137.594 133.855 138.407L134.044 138.458C137.119 139.286 139.882 140.036 142.465 140.989C147.604 142.885 152.028 145.585 156.609 151.312C160.496 156.17 161.839 162.923 160.507 170.917C160.012 173.885 159.03 177.791 156.351 181.322C153.682 184.841 149.294 188.031 141.902 189.509C130.981 191.693 122.408 192.227 112.082 190.506C106.156 189.518 101.212 187.295 97.7479 185.315C96.0166 184.326 94.6574 183.399 93.733 182.721C93.2708 182.382 92.9175 182.106 92.6808 181.915C92.5905 181.842 92.5172 181.782 92.4613 181.735L88.4936 158.914L88.4215 158.5H88.001H74.001H73.501V159V192Z" fill="#FFFAF1" stroke="#FFFAF1"/>
</svg>
