<svg width="256" height="256" viewBox="0 0 256 256" fill="none" xmlns="http://www.w3.org/2000/svg">
  <circle cx="128" cy="128" r="128" fill="#272C33"/>
  <path d="M68.9441 90.9501C101.56 59.0166 154.44 59.0166 187.056 90.9501L190.981 94.7934C192.612 96.39 192.612 98.9788 190.981 100.575L177.554 113.722C176.738 114.521 175.416 114.521 174.601 113.722L169.199 108.434C146.445 86.156 109.555 86.156 86.8012 108.434L81.0164 114.097C80.201 114.896 78.879 114.896 78.0636 114.097L64.6357 100.951C63.0049 99.3538 63.0049 96.7651 64.6357 95.1684L68.9441 90.9501ZM214.826 118.139L226.777 129.84C228.408 131.437 228.408 134.026 226.777 135.622L172.89 188.383C171.259 189.98 168.615 189.98 166.984 188.383C166.984 188.383 166.984 188.383 166.984 188.383L128.739 150.937C128.331 150.538 127.67 150.538 127.262 150.937C127.262 150.937 127.262 150.937 127.262 150.937L89.0172 188.383C87.3865 189.98 84.7424 189.98 83.1116 188.383C83.1116 188.383 83.1116 188.383 83.1116 188.383L29.2231 135.622C27.5923 134.025 27.5923 131.436 29.2231 129.84L41.1739 118.139C42.8047 116.542 45.4487 116.542 47.0795 118.139L85.3258 155.585C85.7335 155.984 86.3945 155.984 86.8022 155.585C86.8022 155.585 86.8022 155.585 86.8022 155.585L125.047 118.139C126.677 116.542 129.321 116.542 130.952 118.139C130.952 118.139 130.952 118.139 130.952 118.139L169.199 155.585C169.606 155.984 170.267 155.984 170.675 155.585L208.921 118.139C210.551 116.543 213.195 116.543 214.826 118.139Z" fill="#3B99FC"/>
</svg>
