<svg width="200" height="200" viewBox="0 0 200 200" fill="none" xmlns="http://www.w3.org/2000/svg">
  <path d="M100 200C155.228 200 200 155.228 200 100C200 44.7715 155.228 0 100 0C44.7715 0 0 44.7715 0 100C0 155.228 44.7715 200 100 200Z" fill="#E84142"/>
  <path d="M135.276 102.598C138.74 96.6141 144.331 96.6141 147.795 102.598L169.37 140.472C172.835 146.457 170 151.339 163.071 151.339H119.606C112.756 151.339 109.921 146.457 113.307 140.472L135.276 102.598ZM93.5434 29.685C97.008 23.7007 102.52 23.7007 105.984 29.685L110.788 38.3464L122.126 58.2676C124.882 63.9369 124.882 70.6298 122.126 76.2991L84.0946 142.205C80.63 147.559 74.882 150.945 68.504 151.339H36.9292C30.0001 151.339 27.1655 146.535 30.63 140.472L93.5434 29.685Z" fill="white"/>
</svg>
