<svg width="201" height="200" viewBox="0 0 201 200" fill="none" xmlns="http://www.w3.org/2000/svg">
  <circle cx="100.998" cy="100" r="100" fill="white"/>
  <path d="M112.814 77.2061C115.966 89.5682 96.1682 93.083 89.9865 94.6585L84.4108 72.7824C90.5925 71.2068 109.522 64.2985 112.814 77.2061ZM126.572 109.929C130.047 123.524 106.37 127.907 98.9359 129.806L92.8753 105.688C100.289 103.809 123.037 95.7291 126.653 109.929H126.572ZM132.067 67.1063C127.521 54.4411 115.218 52.9666 100.754 55.3097L96.1682 37.3119L85.1987 40.0994L89.6633 57.6327C86.7946 58.3599 83.8654 59.1678 80.9563 59.9758L76.3705 42.382L65.4212 45.1291L70.007 63.1068C67.6434 63.7734 65.3202 64.3995 63.0576 64.9853L47.9467 68.8232L50.9366 80.539C50.9366 80.539 59.0173 78.3171 58.8758 78.5191C61.8377 77.3502 65.19 78.7701 66.4111 81.7106L71.6837 102.132C72.0692 102.034 72.4606 101.959 72.8554 101.91L71.7039 102.213L78.9564 130.937C79.3495 133.122 77.9062 135.214 75.7241 135.623C75.9059 135.623 67.7646 137.643 67.7646 137.643L68.9161 151.278L83.1785 147.642L91.0168 145.622L95.6632 163.802L106.613 161.014L101.986 143.117C104.916 142.451 107.845 141.724 110.754 140.976L115.319 158.913L126.269 156.126L121.663 137.946C139.844 132.189 151.521 124.271 148.713 106.576C146.43 92.3154 138.349 87.7705 127.279 87.9119C132.814 83.064 135.36 76.3577 131.986 67.1063H132.067ZM189.036 52.5828C208.225 88.1961 204.062 131.862 178.489 163.209C152.916 194.556 110.973 207.407 72.2269 195.767C33.4807 184.127 5.56638 150.289 1.50682 110.04C-2.55274 69.7914 18.0424 31.0623 53.684 11.921C102.294 -14.1848 162.865 4.01164 189.036 52.5828Z" fill="#6CC64B"/>
</svg>
