<svg width="200" height="200" viewBox="0 0 200 200" fill="none" xmlns="http://www.w3.org/2000/svg">
  <circle cx="100" cy="100" r="100" fill="white"/>
  <path d="M100 200C155.23 200 200 155.23 200 100C200 44.77 155.23 0 100 0C44.77 0 0 44.77 0 100C0 155.23 44.77 200 100 200Z" fill="#F3BA2F"/>
  <path d="M70.8688 87.1596L100 56.1204L129.145 87.173L146.095 69.1129L100 20L53.92 69.0982L70.8694 87.1583L70.8688 87.1596ZM25 99.9124L41.9506 81.849L58.9 99.9085L41.9494 117.969L25 99.9124ZM70.8688 112.667L100 143.704L129.144 112.652L146.103 130.703L146.095 130.713L100 179.825L53.92 130.727L53.896 130.701L70.8706 112.665L70.8688 112.667ZM141.1 99.92L158.051 81.8592L175 99.9187L158.05 117.98L141.1 99.92Z" fill="white"/>
  <path d="M117.191 99.9028H117.198L99.9994 81.5767L87.2872 95.1176L85.8268 96.6743L82.8148 99.8842L82.7908 99.9092L82.8148 99.9354L99.9994 118.248L117.199 99.9219L117.207 99.9117L117.192 99.9028" fill="white"/>
</svg>
