<svg width="200" height="201" viewBox="0 0 200 201" fill="none" xmlns="http://www.w3.org/2000/svg">
  <path d="M100 200.68C155.228 200.68 200 155.908 200 100.68C200 45.4515 155.228 0.679932 100 0.679932C44.7715 0.679932 0 45.4515 0 100.68C0 155.908 44.7715 200.68 100 200.68Z" fill="#F0B90B"/>
  <path fill-rule="evenodd" clip-rule="evenodd" d="M57.441 75.2799L100.041 32.6799L117.027 49.6659L74.427 92.2659L57.441 75.2799ZM57.472 126.186L125.551 58.1069L142.537 75.0929L74.458 143.172L57.472 126.186ZM151.013 83.6169L82.934 151.696L99.919 168.68L168 100.602L151.013 83.6169ZM32 100.716L48.986 83.7299L65.972 100.716L48.986 117.702L32 100.716Z" fill="white"/>
</svg>
