<svg width="200" height="200" viewBox="0 0 200 200" fill="none" xmlns="http://www.w3.org/2000/svg">
  <circle cx="100" cy="100" r="100" fill="white"/>
  <path d="M100 200C155.23 200 200 155.23 200 100C200 44.77 155.23 0 100 0C44.77 0 0 44.77 0 100C0 155.23 44.77 200 100 200Z" fill="#272C33"/>
  <path fill-rule="evenodd" clip-rule="evenodd" d="M47.0197 141.904C43.2855 139.619 41 135.56 41 131.189V106.785C41 103.888 43.3604 101.54 46.2579 101.552C47.182 101.552 48.0937 101.802 48.893 102.264L103.957 134.373C107.179 136.247 109.165 139.694 109.165 143.428V168.706C109.177 172.177 106.367 175 102.895 175C101.734 175 100.585 174.675 99.5983 174.076L47.0197 141.904ZM129.097 95.5826C132.319 97.456 134.293 100.915 134.305 104.637V155.942C134.305 157.453 133.493 158.852 132.17 159.589L120.118 166.37C119.968 166.458 119.805 166.52 119.631 166.57V138.083C119.631 134.398 117.695 130.976 114.523 129.078L66.1653 100.154V67.9945C66.1653 65.097 68.5257 62.7491 71.4231 62.7616C72.3473 62.7616 73.259 63.0114 74.0583 63.4735L129.097 95.5826ZM153.201 57.6911C156.436 59.5644 158.421 63.0239 158.421 66.7581V141.692C158.409 143.228 157.56 144.639 156.211 145.376L144.783 151.546V99.3793C144.783 95.695 142.848 92.2855 139.7 90.3872L90.269 60.7384V30.2403C90.269 29.3161 90.5188 28.4044 90.9684 27.6052C92.4296 25.1074 95.6393 24.2581 98.137 25.7068L153.201 57.6911Z" fill="#00D395"/>
</svg>
