<svg width="200" height="201" viewBox="0 0 200 201" fill="none" xmlns="http://www.w3.org/2000/svg">
  <path d="M100 0.679932C155.234 0.679932 200 45.4554 200 100.68C200 155.913 155.234 200.68 100 200.68C44.7754 200.68 0 155.909 0 100.68C0 45.4554 44.7754 0.679932 100 0.679932Z" fill="#F5AC37"/>
  <path d="M103.653 107.741H141.651C142.461 107.741 142.844 107.741 142.902 106.679C143.213 102.814 143.213 98.9257 142.902 95.0557C142.902 94.3042 142.529 93.9937 141.714 93.9937H66.0908C65.1548 93.9937 64.9028 94.3042 64.9028 95.1817V106.306C64.9028 107.741 64.9028 107.741 66.4013 107.741H103.653ZM138.659 80.9931C138.767 80.7096 138.767 80.3991 138.659 80.12C138.024 78.7385 137.272 77.42 136.399 76.1825C135.085 74.0675 133.537 72.119 131.773 70.3685C130.941 69.3109 129.978 68.3614 128.898 67.5559C123.489 62.9524 117.058 59.6943 110.146 58.0563C106.659 57.2733 103.095 56.8998 99.5216 56.9313H65.9603C65.0243 56.9313 64.8983 57.3048 64.8983 58.1193V80.3046C64.8983 81.2406 64.8983 81.4926 66.0863 81.4926H138.209C138.209 81.4926 138.834 81.3666 138.96 80.9931H138.654H138.659ZM138.659 120.742C137.596 120.625 136.525 120.625 135.463 120.742H66.1538C65.2178 120.742 64.9028 120.742 64.9028 121.993V143.683C64.9028 144.682 64.9028 144.934 66.1538 144.934H98.1536C99.6836 145.051 101.214 144.943 102.712 144.624C107.356 144.291 111.924 143.283 116.28 141.622C117.864 141.073 119.394 140.358 120.838 139.498H121.275C128.776 135.597 134.869 129.468 138.713 121.943C138.713 121.943 139.149 120.998 138.659 120.751V120.742ZM52.3431 156.18V155.806V141.244V136.308V121.619C52.3431 120.805 52.3431 120.683 51.3441 120.683H37.781C37.0295 120.683 36.719 120.683 36.719 119.684V107.809H51.2181C52.0281 107.809 52.3431 107.809 52.3431 106.747V94.9972C52.3431 94.2457 52.3431 94.0612 51.3441 94.0612H37.781C37.0295 94.0612 36.719 94.0612 36.719 93.0622V82.0641C36.719 81.3756 36.719 81.1911 37.718 81.1911H51.1551C52.0911 81.1911 52.3431 81.1911 52.3431 80.003V46.3157C52.3431 45.3167 52.3431 45.0647 53.5942 45.0647H100.467C103.869 45.1997 107.248 45.5732 110.592 46.1897C117.481 47.4632 124.101 49.9247 130.153 53.4393C134.167 55.8018 137.862 58.6548 141.152 61.9399C143.627 64.5094 145.859 67.2904 147.839 70.2515C149.805 73.253 151.439 76.4615 152.721 79.814C152.879 80.6871 153.716 81.2766 154.589 81.1281H165.776C167.211 81.1281 167.211 81.1281 167.274 82.5051V92.7562C167.274 93.7552 166.901 94.0072 165.897 94.0072H157.271C156.398 94.0072 156.146 94.0072 156.209 95.1322C156.551 98.9392 156.551 102.76 156.209 106.567C156.209 107.629 156.209 107.755 157.401 107.755H167.27C167.706 108.317 167.27 108.88 167.27 109.447C167.333 110.171 167.333 110.905 167.27 111.629V119.194C167.27 120.256 166.959 120.571 166.019 120.571H154.206C153.383 120.413 152.582 120.94 152.393 121.759C149.58 129.072 145.08 135.628 139.266 140.884C137.142 142.797 134.91 144.597 132.579 146.257C130.077 147.697 127.642 149.196 125.077 150.384C120.357 152.508 115.407 154.074 110.326 155.068C105.502 155.932 100.611 156.324 95.7011 156.256H52.3251V156.193L52.3431 156.18Z" fill="#FEFEFD"/>
</svg>
