<svg width="200" height="200" viewBox="0 0 201 200" fill="none" xmlns="http://www.w3.org/2000/svg">
  <circle cx="100.996" cy="100" r="100" fill="white"/>
  <path d="M100.996 0C156.225 0 200.996 44.7715 200.996 100C200.996 155.228 156.225 200 100.996 200C45.7676 200 0.996094 155.228 0.996094 100C0.996094 44.7715 45.7676 0 100.996 0ZM112.948 38.6071H99.7923L95.6651 49.4411H54.3925C52.5008 49.4411 50.7811 50.4729 49.8353 52.0206L39.5172 70.1634H116.645C119.225 70.1634 121.718 70.6793 124.126 71.6251C128.683 73.5168 134.014 77.73 132.724 87.2743C130.489 103.267 114.152 131.556 78.8121 131.986L97.0408 84.4368C97.7287 82.4592 96.3529 80.3955 94.2893 80.3955H69.7837L40.205 153.138C40.205 153.138 46.138 153.826 55.5963 153.826L52.6728 161.479H66.1724C67.2902 161.479 68.236 160.791 68.6659 159.845L71.2454 153.224C73.2231 153.052 75.2867 152.88 77.3503 152.623L73.911 161.479H87.2386C88.3564 161.479 89.3022 160.791 89.7321 159.845L93.6014 149.785C115.699 144.798 139.603 133.792 153.705 110.576C181.908 63.9725 152.243 51.8487 131.693 49.785L135.218 40.5847C135.562 39.6389 134.874 38.6071 133.928 38.6071H120.773L116.645 49.4411H110.798L114.238 40.5847C114.582 39.6389 113.894 38.6071 112.948 38.6071Z" fill="#0063CF"/>
</svg>
