<svg width="201" height="200" viewBox="0 0 201 200" fill="none" xmlns="http://www.w3.org/2000/svg">
  <circle cx="100.994" cy="100" r="100" fill="white"/>
  <path d="M100.994 0C156.223 0 200.994 44.771 200.994 100C200.994 155.229 156.223 200 100.994 200C45.7651 200 0.994141 155.229 0.994141 100C0.994141 44.771 45.7651 0 100.994 0ZM102.067 45.9201L68.7071 45.921V94.07H55.9421V105.864H68.7081V154.01H104.924C104.924 154.01 155.845 158.278 155.845 100.869C155.845 48.5773 114.09 46.013 102.067 45.9201ZM103.394 65.9C108.738 65.9 135.624 68.051 135.667 101.258C135.708 132.62 110.944 133.975 104.949 134.028L89.1061 134.03V105.863H111.585V94.069H89.1061V65.9H103.394Z" fill="#C2A633"/>
</svg>
