<svg width="200" height="200" viewBox="0 0 200 200" fill="none" xmlns="http://www.w3.org/2000/svg">
  <path d="M100 200C155.23 200 200 155.23 200 100C200 44.77 155.23 0 100 0C44.77 0 0 44.77 0 100C0 155.23 44.77 200 100 200Z" fill="#627EEA"/>
  <path d="M100.084 20L54 101.483L100.084 79.1653V20Z" fill="white"/>
  <path d="M100.084 79.1652L54 101.483L100.084 130.515V79.1652Z" fill="#C0CBF6"/>
  <path d="M146.178 101.483L100.085 20V79.1653L146.178 101.483Z" fill="#C0CBF6"/>
  <path d="M100.085 130.515L146.178 101.483L100.085 79.1652V130.515Z" fill="#8197EE"/>
  <path d="M54 110.799L100.084 180V139.813L54 110.799Z" fill="white"/>
  <path d="M100.085 139.813V180L146.204 110.799L100.085 139.813Z" fill="#C0CBF6"/>
</svg>
