<svg width="201" height="201" viewBox="0 0 201 201" fill="none" xmlns="http://www.w3.org/2000/svg">
  <path d="M100.998 201C156.415 201 200.998 156.417 200.998 101C200.998 45.583 156.415 1.00003 100.998 1.00003C45.5811 1.00003 0.998047 45.583 0.998047 101C0.998047 156.417 45.5811 201 100.998 201Z" fill="#2775CA"/>
  <path d="M128.498 116.833C128.498 102.25 119.748 97.25 102.248 95.167C89.748 93.5 87.248 90.167 87.248 84.333C87.248 78.499 91.415 74.75 99.748 74.75C107.248 74.75 111.415 77.25 113.498 83.5C113.915 84.75 115.165 85.583 116.415 85.583H123.081C124.748 85.583 125.998 84.333 125.998 82.667V82.25C124.331 73.083 116.831 66 107.248 65.167V55.167C107.248 53.5 105.998 52.25 103.915 51.833H97.665C95.998 51.833 94.748 53.083 94.331 55.167V64.75C81.831 66.417 73.915 74.75 73.915 85.167C73.915 98.917 82.248 104.333 99.748 106.417C111.415 108.5 115.165 111 115.165 117.667C115.165 124.334 109.331 128.917 101.415 128.917C90.581 128.917 86.831 124.333 85.581 118.083C85.165 116.417 83.915 115.583 82.665 115.583H75.581C73.915 115.583 72.665 116.833 72.665 118.5V118.917C74.331 129.333 80.998 136.833 94.748 138.917V148.917C94.748 150.583 95.998 151.833 98.081 152.25H104.331C105.998 152.25 107.248 151 107.665 148.917V138.917C120.165 136.833 128.498 128.083 128.498 116.833Z" fill="white"/>
  <path d="M79.7481 160.583C47.2481 148.917 30.5811 112.667 42.6651 80.583C48.9151 63.083 62.6651 49.75 79.7481 43.5C81.4151 42.667 82.2481 41.417 82.2481 39.333V33.5C82.2481 31.833 81.4151 30.583 79.7481 30.167C79.3311 30.167 78.4981 30.167 78.0811 30.583C38.4981 43.083 16.8311 85.167 29.3311 124.75C36.8311 148.083 54.7481 166 78.0811 173.5C79.7481 174.333 81.4151 173.5 81.8311 171.833C82.2481 171.417 82.2481 171 82.2481 170.167V164.333C82.2481 163.083 80.9981 161.417 79.7481 160.583ZM123.915 30.583C122.248 29.75 120.581 30.583 120.165 32.25C119.748 32.667 119.748 33.083 119.748 33.917V39.75C119.748 41.417 120.998 43.083 122.248 43.917C154.748 55.583 171.415 91.833 159.331 123.917C153.081 141.417 139.331 154.75 122.248 161C120.581 161.833 119.748 163.083 119.748 165.167V171C119.748 172.667 120.581 173.917 122.248 174.333C122.665 174.333 123.498 174.333 123.915 173.917C163.498 161.417 185.165 119.333 172.665 79.75C165.165 56 146.831 38.083 123.915 30.583Z" fill="white"/>
  <path d="M100.998 200.68C156.227 200.68 200.998 155.908 200.998 100.68C200.998 45.4515 156.227 0.679932 100.998 0.679932C45.7696 0.679932 0.998047 45.4515 0.998047 100.68C0.998047 155.908 45.7696 200.68 100.998 200.68Z" fill="#2D598A"/>
  <path d="M93.1223 123.799H134.297V141.011H71.0723V62.2612H132.835V79.4737H93.1223V92.7487H128.11V109.399H93.1223V123.799Z" fill="white"/>
</svg>
