<svg width="200" height="200" viewBox="0 0 200 200" fill="none" xmlns="http://www.w3.org/2000/svg">
  <circle cx="100" cy="100" r="100" fill="white"/>
  <path fill-rule="evenodd" clip-rule="evenodd" d="M100.374 0.00412669C44.9437 -0.495861 0.499374 44.5031 0 99.5018C0 155 44.9437 200 99.8748 200C155.034 200.137 199.861 155.479 200 100.252C200.137 45.0246 155.534 0.142195 100.374 0.00412669ZM147.815 45.0031C145.817 46.503 143.32 46.003 141.323 44.0031C139.825 42.5031 138.826 41.0031 137.274 39.5032C134.278 35.4492 129.783 35.0033 126.288 38.5032C123.573 41.2392 121.373 44.4437 119.796 47.9624C116.3 58.4622 113.803 69.4619 110.348 80.3941L137.814 84.4481L135.816 91.9479L109.322 88.002L106.367 104.056L134.831 108.11L132.834 115.609L104.869 111.556C102.871 118.055 101.872 125.069 99.3755 131.055C96.8786 138.055 94.3817 145.055 91.3855 151.555C87.3365 160.054 80.3993 166.054 70.9111 167.554C65.418 168.554 59.4255 168.054 54.9312 164.554C53.3419 163.546 52.2533 161.911 51.9346 160.054C51.9164 157.942 52.8302 155.929 54.4318 154.554C55.4305 154.055 57.9274 154.554 59.4255 155.054C61.0505 156.668 62.4164 158.523 63.4745 160.554C66.4708 164.608 70.4658 165.054 74.4607 162.054C78.9551 158 81.452 152.595 82.9501 147.055C85.9464 135.055 88.9426 123.555 91.4395 111.556V109.461L64.9726 105.407L65.9714 97.9072L93.437 101.961L96.8786 86.4886L68.4143 82.0022L69.413 74.0024L98.8761 78.0563C99.8748 75.0564 100.374 72.5564 101.373 70.0565C103.87 61.0567 106.367 52.0569 112.359 44.0571C118.352 36.0573 125.343 31.0574 135.83 31.5574C140.363 31.3869 144.743 33.2143 147.815 36.5573C148.592 37.1881 149.123 38.0734 149.313 39.0573C149.313 41.0032 149.313 43.5031 147.815 45.0031Z" fill="#0090FF"/>
</svg>
