<svg width="200" height="200" viewBox="0 0 200 200" fill="none" xmlns="http://www.w3.org/2000/svg">
  <path d="M100 200C155.228 200 200 155.228 200 100C200 44.7715 155.228 0 100 0C44.7715 0 0 44.7715 0 100C0 155.228 44.7715 200 100 200Z" fill="#1969FF"/>
  <path d="M94.6578 29.5288C97.9036 27.7056 102.843 27.7056 106.088 29.5288L139.21 48.134C141.165 49.232 142.238 50.8683 142.431 52.5575H142.462V146.076C142.419 147.918 141.336 149.749 139.21 150.943L106.088 169.548C102.843 171.371 97.9036 171.371 94.6578 169.548L61.5364 150.943C59.4197 149.754 58.4038 147.911 58.3535 146.076C58.3484 145.887 58.3479 145.732 58.3534 145.605L58.3535 53.1871C58.3486 53.0571 58.3485 52.9277 58.3534 52.7988L58.3535 52.5575H58.3683C58.5154 50.8496 59.5403 49.2551 61.5364 48.134L94.6578 29.5288ZM137.194 104.551L106.078 122.086C102.837 123.913 97.9054 123.913 94.6642 122.086L63.6183 104.59V145.787L94.6642 163.19C96.4989 164.236 98.4065 165.255 100.264 165.3L100.371 165.301C102.225 165.308 104.025 164.303 105.85 163.352L137.194 145.637V104.551ZM53.1604 144.049C53.1604 147.634 53.548 149.99 54.3175 151.65C54.9554 153.026 55.9124 154.077 57.6599 155.357L57.7596 155.429C58.1431 155.707 58.5655 155.999 59.0798 156.341L59.6862 156.74L61.5484 157.948L58.8775 162.695L56.7933 161.342L56.4429 161.11C55.8403 160.71 55.3408 160.367 54.8749 160.029C49.8946 156.42 48.0372 152.485 48.0006 144.298L48 144.049H53.1604ZM97.8656 79.6891C97.6246 79.7774 97.3987 79.8798 97.1928 79.996L64.1219 98.6609C64.0872 98.6804 64.0541 98.6999 64.0226 98.719L63.9946 98.7363L64.0466 98.7682L64.1219 98.8118L97.1928 117.477C97.3987 117.593 97.6246 117.695 97.8656 117.784V79.6891ZM103.134 79.6891V117.784C103.376 117.695 103.601 117.593 103.807 117.477L136.878 98.8118C136.913 98.7923 136.946 98.7728 136.977 98.7537L137.005 98.7363L136.953 98.7045L136.878 98.6609L103.807 79.996C103.601 79.8798 103.376 79.7774 103.134 79.6891ZM137.194 59.2384L107.462 75.8797L137.194 92.5209V59.2384ZM63.6183 59.2384V92.5209L93.3495 75.8797L63.6183 59.2384ZM103.778 34.5025C102.057 33.5329 98.9429 33.5329 97.2216 34.5025L64.122 53.1481C64.0873 53.1677 64.0542 53.187 64.0227 53.2063L63.9946 53.2235L64.0466 53.2552L64.122 53.2989L97.2216 71.9444C98.9429 72.9142 102.057 72.9142 103.778 71.9444L136.878 53.2989C136.913 53.2793 136.946 53.26 136.977 53.2409L137.005 53.2235L136.953 53.1918L136.878 53.1481L103.778 34.5025ZM142.122 36.3818L144.207 37.735L144.557 37.9662C145.16 38.3661 145.659 38.7096 146.125 39.0473C151.105 42.6568 152.963 46.5921 152.999 54.7786L153 55.028H147.84C147.84 51.4428 147.452 49.0866 146.682 47.4265C146.045 46.0507 145.088 44.9992 143.34 43.7198L143.24 43.6471C142.857 43.3692 142.435 43.078 141.92 42.7358L141.314 42.3365L139.452 41.1285L142.122 36.3818Z" fill="white"/>
</svg>
