<svg width="201" height="200" viewBox="0 0 201 200" fill="none" xmlns="http://www.w3.org/2000/svg">
  <path d="M100.998 200C156.228 200 200.998 155.23 200.998 100C200.998 44.77 156.228 0 100.998 0C45.768 0 0.998047 44.77 0.998047 100C0.998047 155.23 45.768 200 100.998 200Z" fill="#272C33"/>
  <path d="M72.7455 48.0076C103.824 47.9975 134.905 47.9975 165.987 48.0076C165.997 58.7115 165.997 69.4135 165.987 80.1136C134.908 80.1238 103.827 80.1238 72.7455 80.1136C72.7355 69.4098 72.7355 58.7078 72.7455 48.0076Z" fill="#02A6C2"/>
  <path d="M36.0331 92.1924C46.0599 92.137 56.0884 92.137 66.1186 92.1924C66.1706 102.876 66.1706 113.561 66.1186 124.248C56.0888 124.303 46.0603 124.304 36.0331 124.251C35.9811 113.566 35.9811 102.88 36.0331 92.1924Z" fill="#5FCADE"/>
  <path d="M72.7686 92.1923C95.2006 92.1415 117.631 92.1415 140.06 92.1923C140.108 102.876 140.108 113.561 140.06 124.248C117.629 124.298 95.198 124.298 72.7686 124.248C72.7218 113.564 72.7218 102.879 72.7686 92.1923Z" fill="#5FCADE"/>
  <path d="M72.7967 136.387C82.8065 136.271 92.8146 136.271 102.821 136.387C102.925 147.046 102.927 157.709 102.826 168.378C92.8157 168.483 82.8078 168.482 72.8019 168.373C72.6979 157.715 72.6961 147.053 72.7967 136.387Z" fill="#ABEBF4"/>
</svg>
