<svg width="200" height="200" viewBox="0 0 200 200" fill="none" xmlns="http://www.w3.org/2000/svg">
  <path d="M100 200C155.23 200 200 155.23 200 100C200 44.77 155.23 0 100 0C44.77 0 0 44.77 0 100C0 155.23 44.77 200 100 200Z" fill="#272C33"/>
  <path d="M112.97 41.4062C101.585 41.4107 90.668 45.937 82.6201 53.9897C74.5723 62.0424 70.0525 72.962 70.0549 84.3468C70.0549 84.3769 70.0549 84.4056 70.0549 84.4364V84.5065C70.0856 85.0458 70.3216 85.5529 70.7146 85.9235C71.1076 86.2941 71.6277 86.5 72.1679 86.499H153.771C154.311 86.5 154.831 86.294 155.224 85.9234C155.616 85.5528 155.852 85.0457 155.883 84.5065L155.886 84.4364C155.886 84.4056 155.886 84.3769 155.886 84.3468C155.889 72.9616 151.369 62.0418 143.32 53.989C135.272 45.9362 124.355 41.4102 112.97 41.4062Z" fill="#53CBC8"/>
  <path d="M41.6418 132.291C41.6414 132.807 41.4879 133.312 41.2007 133.741C40.9135 134.17 40.5055 134.505 40.0283 134.702C39.5511 134.899 39.0261 134.951 38.5197 134.85C38.0132 134.749 37.5481 134.5 37.183 134.135C36.818 133.77 36.5694 133.304 36.4687 132.798C36.368 132.291 36.4198 131.766 36.6174 131.289C36.815 130.812 37.1496 130.404 37.579 130.117C38.0083 129.83 38.5131 129.677 39.0295 129.677C39.3726 129.677 39.7125 129.745 40.0295 129.876C40.3465 130.007 40.6346 130.2 40.8772 130.443C41.1198 130.685 41.3121 130.974 41.4433 131.291C41.5745 131.608 41.642 131.948 41.6418 132.291Z" fill="#E1147B"/>
  <path d="M150.932 117.833H63.3722C62.9268 117.833 62.4891 117.949 62.102 118.17C61.7148 118.39 61.3914 118.707 61.1634 119.09C60.9354 119.472 60.8106 119.908 60.8011 120.353C60.7916 120.798 60.8979 121.239 61.1094 121.631C61.1234 121.658 61.1381 121.685 61.1528 121.712C61.3733 122.12 61.7002 122.461 62.0987 122.698C62.4972 122.935 62.9526 123.06 63.4164 123.059H150.89C151.354 123.06 151.809 122.935 152.208 122.698C152.606 122.46 152.933 122.12 153.154 121.712L153.197 121.631C153.408 121.238 153.514 120.798 153.505 120.353C153.495 119.907 153.37 119.472 153.142 119.089C152.914 118.706 152.59 118.39 152.203 118.169C151.815 117.949 151.378 117.833 150.932 117.833Z" fill="#E1147B"/>
  <path d="M162.566 94.1426H63.3701C63.02 94.1435 62.6737 94.2157 62.3523 94.3548C62.031 94.4939 61.7414 94.697 61.5011 94.9517C61.2609 95.2064 61.075 95.5075 60.9549 95.8364C60.8348 96.1653 60.783 96.5152 60.8026 96.8648C60.8026 96.8921 60.8026 96.9194 60.8068 96.9468C60.8437 97.6024 61.1306 98.2191 61.6083 98.6697C62.086 99.1203 62.7183 99.3707 63.375 99.3693H162.566C163.223 99.3705 163.855 99.1201 164.333 98.6695C164.811 98.2189 165.097 97.6024 165.134 96.9468C165.134 96.9194 165.134 96.8921 165.139 96.8648C165.158 96.5148 165.106 96.1645 164.986 95.8352C164.866 95.506 164.679 95.2048 164.438 94.95C164.198 94.6952 163.907 94.4921 163.586 94.3533C163.264 94.2145 162.917 94.1428 162.566 94.1426Z" fill="#E1147B"/>
  <path d="M125.217 153.367H80.5119C79.932 153.367 79.3691 153.563 78.9145 153.924C78.46 154.284 78.1404 154.787 78.0076 155.351C77.8748 155.916 77.9366 156.509 78.1829 157.034C78.4293 157.559 78.8457 157.985 79.3648 158.244L79.5286 158.326C79.8848 158.503 80.2773 158.595 80.6751 158.594H125.052C125.45 158.595 125.843 158.503 126.199 158.326L126.362 158.244C126.881 157.986 127.298 157.559 127.544 157.034C127.79 156.51 127.852 155.917 127.72 155.353C127.587 154.788 127.268 154.285 126.814 153.925C126.36 153.564 125.797 153.368 125.217 153.367Z" fill="#E1147B"/>
  <path d="M152.53 141.522H107.826C107.246 141.523 106.684 141.72 106.23 142.08C105.776 142.44 105.457 142.943 105.324 143.507C105.192 144.072 105.253 144.664 105.499 145.189C105.745 145.714 106.161 146.14 106.679 146.399L106.842 146.481C107.199 146.658 107.592 146.749 107.99 146.748H152.364C152.762 146.749 153.154 146.658 153.511 146.481L153.674 146.399C154.192 146.14 154.608 145.714 154.854 145.189C155.1 144.665 155.162 144.073 155.029 143.508C154.897 142.944 154.578 142.441 154.125 142.081C153.671 141.721 153.109 141.524 152.53 141.522Z" fill="#E1147B"/>
  <path d="M91.5726 134.081L91.4969 133.999C91.1563 133.632 90.9303 133.174 90.8464 132.68C90.7625 132.186 90.8246 131.679 91.0249 131.22C91.2252 130.761 91.555 130.371 91.974 130.096C92.393 129.822 92.8829 129.676 93.3837 129.676H165.94C166.441 129.676 166.931 129.822 167.35 130.096C167.769 130.371 168.099 130.761 168.299 131.22C168.499 131.679 168.561 132.186 168.477 132.68C168.393 133.174 168.167 133.632 167.827 133.999L167.751 134.081C167.509 134.339 167.218 134.546 166.893 134.687C166.569 134.828 166.219 134.902 165.865 134.903H93.4586C93.1048 134.902 92.7549 134.828 92.4305 134.687C92.1061 134.546 91.8142 134.339 91.5726 134.081Z" fill="#E1147B"/>
  <path d="M48.3582 129.677H83.0059C83.5854 129.678 84.1477 129.875 84.6016 130.235C85.0556 130.595 85.3746 131.098 85.5073 131.662C85.6399 132.227 85.5783 132.819 85.3324 133.344C85.0865 133.869 84.6707 134.295 84.1523 134.554L83.9891 134.636C83.6329 134.813 83.2404 134.905 82.8427 134.904H48.5255C48.1275 134.905 47.7347 134.813 47.3783 134.636L47.2152 134.554C46.697 134.295 46.2814 133.869 46.0355 133.345C45.7895 132.82 45.7276 132.228 45.8598 131.664C45.9919 131.1 46.3105 130.597 46.7638 130.237C47.2172 129.876 47.7789 129.679 48.3582 129.677Z" fill="#E1147B"/>
  <path d="M56.6539 96.7556C56.6536 97.272 56.5002 97.7768 56.2131 98.2061C55.926 98.6353 55.518 98.9699 55.0408 99.1673C54.5637 99.3648 54.0387 99.4164 53.5322 99.3155C53.0257 99.2146 52.5605 98.9658 52.1953 98.6006C51.8302 98.2354 51.5816 97.7701 51.4808 97.2636C51.3801 96.7571 51.4318 96.2321 51.6294 95.7549C51.827 95.2778 52.1616 94.8699 52.5909 94.5829C53.0203 94.296 53.5251 94.1427 54.0416 94.1426C54.3847 94.1426 54.7244 94.2102 55.0414 94.3415C55.3584 94.4728 55.6464 94.6653 55.889 94.9079C56.1316 95.1506 56.324 95.4387 56.4552 95.7557C56.5865 96.0727 56.654 96.4125 56.6539 96.7556Z" fill="#E1147B"/>
  <path d="M118.222 109.307C118.229 109.28 118.236 109.252 118.244 109.225C118.346 108.844 118.359 108.445 118.282 108.058C118.205 107.671 118.04 107.307 117.8 106.994C117.559 106.681 117.25 106.427 116.896 106.253C116.542 106.079 116.153 105.988 115.759 105.988H43.1911C42.7965 105.988 42.4071 106.078 42.0531 106.253C41.6991 106.427 41.3899 106.681 41.1496 106.994C40.9092 107.307 40.7442 107.671 40.6672 108.058C40.5902 108.445 40.6033 108.844 40.7056 109.225C40.7126 109.252 40.7203 109.28 40.728 109.307C40.8751 109.853 41.1981 110.336 41.6471 110.681C42.0961 111.026 42.646 111.213 43.2121 111.214H115.738C116.304 111.213 116.854 111.026 117.303 110.681C117.752 110.336 118.075 109.853 118.222 109.307Z" fill="#E1147B"/>
  <path d="M36.4732 108.601C36.4729 109.117 36.3195 109.622 36.0324 110.051C35.7453 110.48 35.3373 110.815 34.8601 111.012C34.3828 111.21 33.8578 111.261 33.3512 111.16C32.8447 111.06 32.3795 110.811 32.0144 110.445C31.6493 110.08 31.4007 109.615 31.3001 109.108C31.1994 108.602 31.2512 108.077 31.4489 107.599C31.6466 107.122 31.9813 106.715 32.4108 106.428C32.8402 106.141 33.3451 105.988 33.8616 105.988C34.5544 105.988 35.2186 106.263 35.7083 106.753C36.1981 107.243 36.4732 107.908 36.4732 108.601Z" fill="#E1147B"/>
  <path d="M56.6539 120.446C56.6536 120.962 56.5002 121.467 56.2131 121.896C55.926 122.325 55.518 122.66 55.0408 122.857C54.5637 123.055 54.0387 123.106 53.5322 123.005C53.0257 122.905 52.5605 122.656 52.1953 122.291C51.8302 121.925 51.5816 121.46 51.4808 120.954C51.3801 120.447 51.4318 119.922 51.6294 119.445C51.827 118.968 52.1616 118.56 52.5909 118.273C53.0203 117.986 53.5251 117.833 54.0416 117.833C54.7345 117.833 55.3989 118.108 55.8888 118.598C56.3787 119.088 56.6539 119.753 56.6539 120.446Z" fill="#E1147B"/>
  <path d="M101.109 144.136C101.109 144.652 100.956 145.157 100.668 145.586C100.381 146.015 99.9734 146.35 99.4962 146.547C99.019 146.745 98.494 146.796 97.9875 146.695C97.481 146.595 97.0158 146.346 96.6507 145.981C96.2855 145.615 96.0369 145.15 95.9362 144.644C95.8354 144.137 95.8871 143.612 96.0847 143.135C96.2823 142.658 96.617 142.25 97.0463 141.963C97.4757 141.676 97.9805 141.523 98.4969 141.523C98.84 141.523 99.1797 141.59 99.4967 141.721C99.8137 141.853 100.102 142.045 100.344 142.288C100.587 142.531 100.779 142.819 100.911 143.136C101.042 143.453 101.109 143.792 101.109 144.136Z" fill="#E1147B"/>
  <path d="M73.7941 155.981C73.7938 156.497 73.6405 157.002 73.3533 157.431C73.0662 157.861 72.6582 158.195 72.181 158.393C71.7037 158.59 71.1787 158.642 70.6722 158.541C70.1657 158.44 69.7004 158.191 69.3353 157.826C68.9702 157.46 68.7217 156.995 68.621 156.488C68.5203 155.982 68.5721 155.457 68.7698 154.98C68.9676 154.502 69.3023 154.095 69.7318 153.808C70.1612 153.521 70.666 153.368 71.1825 153.368C71.5256 153.368 71.8653 153.436 72.1822 153.567C72.4991 153.698 72.787 153.891 73.0295 154.133C73.272 154.376 73.4644 154.664 73.5956 154.981C73.7268 155.298 73.7942 155.638 73.7941 155.981Z" fill="#E1147B"/>
</svg>
