<svg width="200" height="200" viewBox="0 0 200 200" fill="none" xmlns="http://www.w3.org/2000/svg">
  <path d="M100 200C155.228 200 200 155.228 200 100C200 44.7715 155.228 0 100 0C44.7715 0 0 44.7715 0 100C0 155.228 44.7715 200 100 200Z" fill="#31CB98"/>
  <path d="M91.7277 99.9906L151.387 134.164C151.867 134.452 152.414 134.607 152.974 134.614C153.533 134.62 154.084 134.477 154.57 134.2C155.056 133.923 155.459 133.522 155.739 133.037C156.018 132.553 156.164 132.002 156.16 131.443V68.4903C156.167 67.9299 156.023 67.378 155.744 66.8922C155.465 66.4065 155.06 66.0048 154.572 65.7291C154.084 65.4534 153.531 65.314 152.971 65.3253C152.411 65.3367 151.864 65.4985 151.387 65.7937L91.7277 99.9906Z" fill="white"/>
  <path d="M150.123 50.6639L109.339 20.667C108.915 20.343 108.418 20.1285 107.892 20.0425C107.365 19.9564 106.825 20.0015 106.32 20.1738C105.815 20.3461 105.361 20.6401 104.997 21.03C104.632 21.4199 104.37 21.8936 104.232 22.4091L89.3413 89.2279L149.765 55.8185C150.224 55.582 150.615 55.2309 150.9 54.7992C151.184 54.3675 151.353 53.8697 151.389 53.354C151.425 52.8382 151.327 52.3218 151.105 51.8548C150.883 51.3878 150.545 50.9858 150.123 50.6878" fill="white"/>
  <path d="M109.291 179.29L150.123 149.293C150.545 148.991 150.884 148.586 151.107 148.117C151.329 147.648 151.429 147.129 151.395 146.611C151.362 146.093 151.197 145.591 150.915 145.155C150.634 144.718 150.246 144.36 149.788 144.115L89.3413 110.705L104.232 177.524C104.356 178.043 104.606 178.524 104.962 178.922C105.317 179.32 105.765 179.624 106.267 179.806C106.768 179.989 107.307 180.043 107.835 179.966C108.363 179.888 108.864 179.68 109.291 179.362" fill="white"/>
  <path d="M76.2175 98.7733L91.729 26.2033C91.8475 25.6021 91.7839 24.9793 91.5463 24.4145C91.3087 23.8497 90.908 23.3686 90.3954 23.0329C89.8829 22.6972 89.2818 22.522 88.6691 22.5299C88.0564 22.5378 87.46 22.7283 86.9563 23.0771L47.223 53.5513C46.2168 54.3231 45.4026 55.317 44.8438 56.4553C44.285 57.5937 43.9967 58.8457 44.0013 60.1138V137.433C43.9781 138.721 44.2574 139.996 44.817 141.157C45.3765 142.318 46.2006 143.331 47.223 144.115L86.7654 174.469C87.2691 174.818 87.8655 175.009 88.4782 175.017C89.0909 175.024 89.692 174.849 90.2045 174.514C90.7171 174.178 91.1178 173.697 91.3554 173.132C91.593 172.567 91.6566 171.944 91.5381 171.343L76.2175 98.7733Z" fill="white"/>
</svg>
