<svg width="200" height="200" viewBox="0 0 200 200" fill="none" xmlns="http://www.w3.org/2000/svg">
  <path d="M100 200C155.23 200 200 155.23 200 100C200 44.77 155.23 0 100 0C44.77 0 0 44.77 0 100C0 155.23 44.77 200 100 200Z" fill="#272C33"/>
  <path d="M100.358 20L85.6789 28.4404L45.6789 51.5596L31 60V140L45.6789 148.44L86.0459 171.56L100.725 180L115.404 171.56L155.037 148.44L169.716 140V60L155.037 51.5596L115.037 28.4404L100.358 20ZM60.3578 123.119V76.8807L100.358 53.7615L140.358 76.8807V123.119L100.358 146.239L60.3578 123.119Z" fill="#2A5ADA"/>
</svg>
