<svg width="201" height="200" viewBox="0 0 201 200" fill="none" xmlns="http://www.w3.org/2000/svg">
  <path fill-rule="evenodd" clip-rule="evenodd" d="M200.046 86.1516C196.506 77.974 196.506 77.9741 101.651 43.7068C53.9032 26.4619 45.0434 9.81173 79.6015 2.27593C81.2849 1.91015 82.9812 1.5893 84.6946 1.30909C89.978 0.449197 95.4025 0 100.93 0C151.499 0 193.3 37.4801 200.046 86.1516Z" fill="#F9D85E"/>
  <path fill-rule="evenodd" clip-rule="evenodd" d="M200.029 86.1117C197.272 79.7417 196.57 78.3214 151.009 61.6091C160.634 85.9492 177.599 98.9737 199.742 115.883C200.568 110.711 200.998 105.406 200.998 99.9983C200.998 95.286 200.662 90.6507 200.029 86.1117Z" fill="#EF7730"/>
  <path fill-rule="evenodd" clip-rule="evenodd" d="M110.61 124.99C67.0783 105.534 39.9105 66.0472 38.3255 26.3062C38.257 24.6292 36.2634 23.7949 35.0014 24.903C13.9598 43.3992 0.751275 70.5798 1.00154 100.843C1.44646 154.725 45.2196 198.96 99.1402 199.983C142.678 200.804 180.025 173.846 194.616 135.651C195.193 134.143 193.852 132.584 192.284 132.977C166.922 139.356 137.968 137.219 110.61 124.99Z" fill="#F9D85E"/>
</svg>
