<svg width="201" height="200" viewBox="0 0 201 200" fill="none" xmlns="http://www.w3.org/2000/svg">
  <circle cx="100.998" cy="100" r="100" fill="white"/>
  <path d="M100.998 200C156.228 200 200.998 155.23 200.998 100C200.998 44.77 156.228 0 100.998 0C45.768 0 0.998047 44.77 0.998047 100C0.998047 155.23 45.768 200 100.998 200Z" fill="#8247E5"/>
  <path d="M137.005 74.1162C134.446 72.5583 131.157 72.5583 128.232 74.1162L107.762 86.9689L93.8721 95.148L73.7676 108.001C71.2089 109.559 67.9191 109.559 64.9948 108.001L49.2768 97.8743C46.718 96.3164 44.8903 93.2006 44.8903 89.6953V70.2214C44.8903 67.1056 46.3525 63.9898 49.2768 62.0424L64.9948 52.3054C67.5535 50.7475 70.8433 50.7475 73.7676 52.3054L89.4856 62.4319C92.0444 63.9898 93.8721 67.1056 93.8721 70.6109V83.4636L107.762 74.8951V61.6529C107.762 58.5371 106.3 55.4213 103.376 53.4739L74.1332 35.1684C71.5744 33.6105 68.2846 33.6105 65.3603 35.1684L35.3864 53.8633C32.4621 55.4213 31 58.5371 31 61.6529V98.2638C31 101.38 32.4621 104.495 35.3864 106.443L64.9948 124.748C67.5535 126.306 70.8433 126.306 73.7676 124.748L93.8721 112.285L107.762 103.716L127.867 91.2532C130.426 89.6953 133.715 89.6953 136.64 91.2532L152.358 100.99C154.916 102.548 156.744 105.664 156.744 109.169V128.643C156.744 131.759 155.282 134.875 152.358 136.822L137.005 146.559C134.446 148.117 131.157 148.117 128.232 146.559L112.514 136.822C109.956 135.264 108.128 132.148 108.128 128.643V116.18L94.2376 124.748V137.601C94.2376 140.717 95.6997 143.833 98.624 145.78L128.232 164.085C130.791 165.643 134.081 165.643 137.005 164.085L166.614 145.78C169.172 144.222 171 141.106 171 137.601V100.601C171 97.4848 169.538 94.369 166.614 92.4216L137.005 74.1162Z" fill="white"/>
</svg>
