<svg width="201" height="200" viewBox="0 0 201 200" fill="none" xmlns="http://www.w3.org/2000/svg">
  <circle cx="100.998" cy="100" r="100" fill="#272C33"/>
  <path d="M41 85.0001H56V70.0001H41V85.0001Z" fill="#FED955"/>
  <path d="M41 115H56V100H41V115Z" fill="#FED955"/>
  <path d="M41 100H56V85H41V100Z" fill="#FED955"/>
  <path d="M41 130H56V115H41V130Z" fill="#FED955"/>
  <path d="M101 55H116V40H101V55Z" fill="#FED955"/>
  <path d="M101 145L116 145L116 160L101 160L101 145Z" fill="#FED955"/>
  <path d="M116 55H131V40H116V55Z" fill="#FED955"/>
  <path d="M131 55H146V40H131V55Z" fill="#9695F8"/>
  <path d="M71 55L56 55L56 40L71 40L71 55Z" fill="#9695F8"/>
  <path d="M161 145L146 145L146 130L161 130L161 145Z" fill="#9695F8"/>
  <path d="M41 145H56V130H41V145Z" fill="#9695F8"/>
  <path d="M116 40.0001H131V25.0001H116V40.0001Z" fill="#9695F8"/>
  <path d="M116 25L131 25V10L116 10V25Z" fill="#5552FD"/>
  <path d="M116 190H131V175H116V190Z" fill="#5552FD"/>
  <path d="M116 175H131V160H116V175Z" fill="#9695F8"/>
  <path d="M86 40.0001H101V25.0001H86V40.0001Z" fill="#9695F8"/>
  <path d="M86 25L101 25V10L86 10V25Z" fill="#5552FD"/>
  <path d="M86 190H101V175H86V190Z" fill="#5552FD"/>
  <path d="M86 175H101V160H86V175Z" fill="#9695F8"/>
  <path d="M101 40.0001H116V25.0001H101V40.0001Z" fill="#9695F8"/>
  <path d="M101 25L116 25V10L101 10V25Z" fill="#5552FD"/>
  <path d="M101 190H116V175H101V190Z" fill="#5552FD"/>
  <path d="M101 175H116V160H101V175Z" fill="#9695F8"/>
  <path d="M70.9998 40.0001H85.9998V25.0001H70.9998V40.0001Z" fill="#9695F8"/>
  <path d="M70.9998 25L85.9998 25V10L70.9998 10V25Z" fill="#5552FD"/>
  <path d="M70.9998 190H85.9998V175H70.9998V190Z" fill="#5552FD"/>
  <path d="M70.9998 175H85.9998V160H70.9998V175Z" fill="#9695F8"/>
  <path d="M146 70H161V55H146V70Z" fill="#9695F8"/>
  <path d="M55.9998 70L40.9998 70L40.9998 55L55.9998 55L55.9998 70Z" fill="#9695F8"/>
  <path d="M146 160L131 160L131 145L146 145L146 160Z" fill="#9695F8"/>
  <path d="M56.0002 160H71.0002V145H56.0002V160Z" fill="#9695F8"/>
  <path d="M161 85.0001H176V70.0001H161V85.0001Z" fill="#9695F8"/>
  <path d="M25.9998 85.0001H40.9998V70.0001H25.9998V85.0001Z" fill="#9695F8"/>
  <path d="M11.0002 85.0001H26.0002L26.0002 70.0001H11.0002L11.0002 85.0001Z" fill="#5552FD"/>
  <path d="M25.9998 70H40.9998V55H25.9998V70Z" fill="#5552FD"/>
  <path d="M176 70L161 70L161 55L176 55L176 70Z" fill="#5552FD"/>
  <path d="M131 175H146V160H131V175Z" fill="#5552FD"/>
  <path d="M26.0002 130V145H41.0002V130H26.0002Z" fill="#5552FD"/>
  <path d="M41 55H56V40H41V55Z" fill="#5552FD"/>
  <path d="M161 55L146 55L146 40L161 40L161 55Z" fill="#5552FD"/>
  <path d="M146 160H161V145H146V160Z" fill="#5552FD"/>
  <path d="M40.9998 145V160H55.9998V145H40.9998Z" fill="#5552FD"/>
  <path d="M56.0002 40.0001H71.0002V25.0001H56.0002V40.0001Z" fill="#5552FD"/>
  <path d="M146 40.0001L131 40.0001L131 25.0001L146 25.0001L146 40.0001Z" fill="#5552FD"/>
  <path d="M161 145H176V130H161V145Z" fill="#5552FD"/>
  <path d="M56 160V175H71V160H56Z" fill="#5552FD"/>
  <path d="M176 85.0001H191V70.0001H176V85.0001Z" fill="#5552FD"/>
  <path d="M161 100H176V85H161V100Z" fill="#9695F8"/>
  <path d="M25.9998 100H40.9998V85H25.9998V100Z" fill="#9695F8"/>
  <path d="M11.0002 100H26.0002L26.0002 85H11.0002L11.0002 100Z" fill="#5552FD"/>
  <path d="M176 100H191V85H176V100Z" fill="#5552FD"/>
  <path d="M161 115H176V100H161V115Z" fill="#9695F8"/>
  <path d="M25.9998 115H40.9998V100H25.9998V115Z" fill="#9695F8"/>
  <path d="M11.0002 115H26.0002L26.0002 100H11.0002L11.0002 115Z" fill="#5552FD"/>
  <path d="M176 115H191V100H176V115Z" fill="#5552FD"/>
  <path d="M161 130H176V115H161V130Z" fill="#9695F8"/>
  <path d="M25.9998 130H40.9998V115H25.9998V130Z" fill="#9695F8"/>
  <path d="M11.0002 130H26.0002L26.0002 115H11.0002L11.0002 130Z" fill="#5552FD"/>
  <path d="M176 130H191V115H176V130Z" fill="#5552FD"/>
  <path d="M116 145L131 145L131 160L116 160L116 145Z" fill="#FED955"/>
  <path d="M101 85.0001H116V70.0001H101V85.0001Z" fill="#FED955"/>
  <path d="M101 115H116V100H101V115Z" fill="#FED955"/>
  <path d="M101 130H116V115H101V130Z" fill="#FED955"/>
  <path d="M101 70H116V55H101V70Z" fill="#FED955"/>
  <path d="M101 130L116 130L116 145L101 145L101 130Z" fill="#FED955"/>
  <path d="M70.9998 115H85.9998V100H70.9998V115Z" fill="#FED955"/>
  <path d="M70.9998 100H85.9998V85H70.9998V100Z" fill="#FED955"/>
  <path d="M70.9998 130H85.9998V115H70.9998V130Z" fill="#FED955"/>
  <path d="M70.9998 70H85.9998V55H70.9998V70Z" fill="#FED955"/>
  <path d="M70.9998 130L85.9998 130L85.9998 145L70.9998 145L70.9998 130Z" fill="#FED955"/>
  <path d="M116 115H131V100H116V115Z" fill="#FED955"/>
  <path d="M116 100H131V85H116V100Z" fill="#FED955"/>
  <path d="M116 130H131V115H116V130Z" fill="#FED955"/>
  <path d="M116 70H131V55H116V70Z" fill="#FED955"/>
  <path d="M116 130L131 130L131 145L116 145L116 130Z" fill="#FED955"/>
  <path d="M86 55H101V40H86V55Z" fill="#FED955"/>
  <path d="M86 145L101 145L101 160L86 160L86 145Z" fill="#FED955"/>
  <path d="M70.9998 55H85.9998V40H70.9998V55Z" fill="#FED955"/>
  <path d="M70.9998 145L85.9998 145L85.9998 160L70.9998 160L70.9998 145Z" fill="#FED955"/>
  <path d="M86 85.0001H101V70.0001H86V85.0001Z" fill="#FED955"/>
  <path d="M86 115H101V100H86V115Z" fill="#FED955"/>
  <path d="M70.9998 85.0001H85.9998V70.0001H70.9998V85.0001Z" fill="#5552FD"/>
  <path d="M101 100H116V85H101V100Z" fill="#5552FD"/>
  <path d="M131 85.0001H146V70.0001H131V85.0001Z" fill="#5552FD"/>
  <path d="M131 115H146V100H131V115Z" fill="#5552FD"/>
  <path d="M131 100H146V85H131V100Z" fill="#5552FD"/>
  <path d="M131 130H146V115H131V130Z" fill="#5552FD"/>
  <path d="M131 70H146V55H131V70Z" fill="#5552FD"/>
  <path d="M131 130L146 130L146 145L131 145L131 130Z" fill="#5552FD"/>
  <path d="M56.0002 85.0001H71.0002V70.0001H56.0002V85.0001Z" fill="#5552FD"/>
  <path d="M56.0002 115H71.0002V100H56.0002V115Z" fill="#5552FD"/>
  <path d="M56.0002 100H71.0002V85H56.0002V100Z" fill="#5552FD"/>
  <path d="M56.0002 130H71.0002V115H56.0002V130Z" fill="#5552FD"/>
  <path d="M56.0002 70H71.0002V55H56.0002V70Z" fill="#5552FD"/>
  <path d="M56.0002 130L71.0002 130L71.0002 145L56.0002 145L56.0002 130Z" fill="#5552FD"/>
  <path d="M116 85.0001H131V70.0001H116V85.0001Z" fill="#5552FD"/>
  <path d="M86 100H101V85H86V100Z" fill="#5552FD"/>
  <path d="M86 130H101V115H86V130Z" fill="#FED955"/>
  <path d="M86 70H101V55H86V70Z" fill="#FED955"/>
  <path d="M86 130L101 130L101 145L86 145L86 130Z" fill="#FED955"/>
  <path d="M146 85.0001H161V70.0001H146V85.0001Z" fill="#FED955"/>
  <path d="M146 115H161V100H146V115Z" fill="#FED955"/>
  <path d="M146 100H161V85H146V100Z" fill="#FED955"/>
  <path d="M146 130H161V115H146V130Z" fill="#FED955"/>
</svg>
