<svg width="200" height="200" viewBox="0 0 200 200" fill="none" xmlns="http://www.w3.org/2000/svg">
  <path d="M100.004 200C155.234 200 200.004 155.23 200.004 100C200.004 44.77 155.234 0 100.004 0C44.7739 0 0.00390625 44.77 0.00390625 100C0.00390625 155.23 44.7739 200 100.004 200Z" fill="#272C33"/>
  <path d="M47.4604 48.6766L60.2195 41.3805L61.94 44.316L108.969 17.3228L105.539 15.3552L102.077 13.3557L100.356 12.3666L23.7373 56.4193V58.3869L45.7399 45.7199L47.4604 48.6766Z" fill="#D6DCE1"/>
  <path d="M47.4604 76.4147L84.3273 55.2072L86.0478 58.1958L133.077 31.1813L129.647 29.1818L126.195 27.2142L124.475 26.2464L23.7373 84.1256V86.093L45.7399 73.426L47.4604 76.4147Z" fill="#D6DCE1"/>
  <path d="M47.4604 90.2725L96.3705 62.1626L98.1123 65.1193L145.131 38.0729L141.69 36.1372L138.249 34.1377L136.518 33.1486L23.7373 97.9515V99.9616L45.7399 87.3052L47.4604 90.2725Z" fill="#D6DCE1"/>
  <path d="M47.4604 104.12L108.777 68.8953L110.508 71.8412L157.185 45.0288L153.755 43.0293L150.303 41.0617L148.583 40.0726L23.7373 111.831V113.799L45.7399 101.132L47.4604 104.12Z" fill="#D6DCE1"/>
  <path d="M47.4604 117.946L120.842 75.7973L122.562 78.7859L169.239 51.931L165.798 49.9846L162.357 47.9851L160.626 46.996L23.7373 125.668V127.635L45.7399 115L47.4604 117.946Z" fill="#D6DCE1"/>
  <path d="M174.411 54.92L172.69 53.9202L23.7373 139.537V141.504L45.7399 128.88L47.4604 131.826L120.842 89.6772L122.562 92.6339L176.986 61.3758V57.4087V56.4196L174.411 54.92Z" fill="#D6DCE1"/>
  <path d="M33.1869 149.759L45.5293 142.676L47.2391 145.622L120.492 103.547L122.213 106.525L177 75.044V71.0769V67.1098V65.1422L31.4985 148.781L33.1869 149.759Z" fill="#D6DCE1"/>
  <path d="M43.5388 155.852L45.27 156.841L57.7834 149.63L59.5252 152.608L120.479 117.574L122.199 120.563L176.986 89.0816V85.1145V81.1474V79.1692L43.5388 155.852Z" fill="#D6DCE1"/>
  <path d="M57.3133 163.775L69.8481 156.554L71.5685 159.532L120.479 131.411L122.199 134.389L176.986 102.908V98.9406V95.0054V93.0165L55.5608 162.765L57.3133 163.775Z" fill="#D6DCE1"/>
  <path d="M69.3665 170.699L81.8905 163.499L83.6324 166.456L120.478 145.291L122.198 148.237L176.986 116.756V112.82V108.853V106.875L67.646 169.721L69.3665 170.699Z" fill="#D6DCE1"/>
  <path d="M79.7109 176.644L81.4207 177.623L93.9875 170.412L95.6759 173.401L120.478 159.117L122.199 162.095L176.986 130.613V126.646V122.679V120.712L79.7109 176.644Z" fill="#D6DCE1"/>
  <path d="M93.4749 184.579L105.999 177.336L107.719 180.314L120.479 172.965L122.199 175.943L176.986 144.493V140.526V136.559V134.591L91.7544 183.6L93.4749 184.579Z" fill="#D6DCE1"/>
  <path d="M121.034 24.247L117.582 22.2794L114.141 20.3012L112.421 19.2908L23.7373 70.2461V72.2137L45.7399 59.5998L47.4604 62.5352L72.2627 48.2835L74.0259 51.2721L121.034 24.247Z" fill="#D6DCE1"/>
</svg>
