<svg width="201" height="200" viewBox="0 0 201 200" fill="none" xmlns="http://www.w3.org/2000/svg">
  <path d="M100.998 200C156.228 200 200.998 155.23 200.998 100C200.998 44.77 156.228 0 100.998 0C45.768 0 0.998047 44.77 0.998047 100C0.998047 155.23 45.768 200 100.998 200Z" fill="#272C33"/>
  <path fill-rule="evenodd" clip-rule="evenodd" d="M58.9495 132.434C59.3618 131.951 59.864 131.565 60.4242 131.301C60.9839 131.036 61.5901 130.9 62.2023 130.899L162.57 130.987C162.998 130.988 163.415 131.121 163.773 131.37C164.131 131.619 164.413 131.974 164.585 132.391C164.758 132.807 164.812 133.269 164.743 133.718C164.674 134.167 164.484 134.586 164.196 134.922L142.823 159.998C142.41 160.481 141.908 160.867 141.347 161.131C140.787 161.396 140.181 161.532 139.567 161.532L39.2024 161.445C38.775 161.444 38.357 161.311 37.9993 161.061C37.6415 160.812 37.3594 160.458 37.1871 160.041C37.0149 159.624 36.9599 159.163 37.029 158.714C37.098 158.264 37.288 157.846 37.576 157.509L58.9495 132.434ZM164.196 111.56C164.484 111.896 164.674 112.315 164.743 112.764C164.812 113.213 164.758 113.675 164.585 114.091C164.413 114.508 164.131 114.863 163.773 115.112C163.415 115.361 162.998 115.494 162.57 115.495L62.2051 115.583C61.5923 115.583 60.9861 115.446 60.4253 115.182C59.8645 114.918 59.3618 114.531 58.9495 114.048L37.576 88.9582C37.288 88.6215 37.098 88.2032 37.029 87.7539C36.9599 87.3046 37.0149 86.8431 37.1871 86.4264C37.3594 86.0098 37.6415 85.6551 37.9993 85.4059C38.357 85.1568 38.775 85.0237 39.2024 85.0226L139.57 84.935C140.183 84.9356 140.788 85.0722 141.349 85.3365C141.909 85.6008 142.411 85.9865 142.823 86.4696L164.196 111.56ZM58.9495 40.5346C59.3618 40.0516 59.864 39.6656 60.4242 39.4014C60.9839 39.1372 61.5901 39.0004 62.2023 39L162.57 39.0875C162.998 39.0885 163.415 39.2216 163.773 39.4708C164.131 39.72 164.413 40.0746 164.585 40.4913C164.758 40.9082 164.812 41.3693 164.743 41.8187C164.674 42.2681 164.484 42.6865 164.196 43.0231L142.823 68.0985C142.41 68.5816 141.908 68.9679 141.347 69.2322C140.787 69.4966 140.181 69.6331 139.567 69.6331L39.2024 69.5456C38.775 69.5444 38.357 69.4114 37.9993 69.1622C37.6415 68.9131 37.3594 68.5583 37.1871 68.1417C37.0149 67.7251 36.9599 67.2635 37.029 66.8143C37.098 66.365 37.288 65.9466 37.576 65.6099L58.9495 40.5346Z" fill="url(#paint0_linear_505_63)"/>
  <defs>
    <linearGradient id="paint0_linear_505_63" x1="40.8782" y1="164.205" x2="168.498" y2="44.4296" gradientUnits="userSpaceOnUse">
      <stop stop-color="#9945FF"/>
      <stop offset="0.2" stop-color="#7962E7"/>
      <stop offset="1" stop-color="#00D18C"/>
    </linearGradient>
  </defs>
</svg>
