<svg width="201" height="200" viewBox="0 0 201 200" fill="none" xmlns="http://www.w3.org/2000/svg">
  <circle cx="100.998" cy="100" r="100" fill="#272C33"/>
  <path d="M54.0097 34.4475L178.301 119.313L147.562 164.753L23.271 79.2192L54.0097 34.4475Z" fill="url(#paint0_linear_0_1)"/>
  <path d="M178.304 119.313C167.612 134.682 131.528 128.668 97.4478 104.612C62.6997 81.2234 43.9891 49.8164 54.0126 34.4471C64.7044 19.0777 100.789 25.0918 134.869 49.1482C169.617 71.8681 188.328 103.943 178.304 119.313Z" fill="url(#paint1_linear_0_1)"/>
  <path d="M147.567 164.085C136.875 179.454 100.791 173.44 66.7109 149.384C32.631 125.328 13.2522 94.5888 23.944 78.5512C34.6357 63.1818 70.7203 69.1959 104.8 93.2523C138.88 117.309 157.591 148.716 147.567 164.085Z" fill="url(#paint2_linear_0_1)"/>
  <path d="M178.309 119.313L147.57 164.753C136.879 180.122 100.794 173.44 66.714 150.051C60.0316 145.374 54.0175 140.696 48.0034 135.35C52.6811 134.682 58.6952 132.009 64.7093 125.327C75.401 113.967 80.7469 111.294 85.4245 111.962C90.1021 111.962 95.448 116.64 104.135 128C112.822 139.36 124.85 142.701 132.201 136.687C132.869 136.019 133.537 136.019 134.206 135.35C140.22 130.673 142.224 128.668 153.584 107.284C156.257 101.939 165.613 93.2516 178.309 97.261C181.65 105.948 181.65 113.299 178.309 119.313Z" fill="#0E0F23"/>
  <path fill-rule="evenodd" clip-rule="evenodd" d="M173.626 116.64C164.271 130.005 131.527 123.322 100.12 101.271C68.0451 79.2191 49.3346 51.1532 58.6898 37.7886C68.0451 24.4239 100.789 31.1062 132.196 53.1579C163.603 75.2096 182.313 103.275 173.626 116.64ZM144.224 96.5931C139.546 103.275 123.509 99.9343 107.471 89.2426C92.1015 78.5508 82.7463 64.5179 87.4239 57.8356C92.1015 51.1532 108.139 54.4944 124.177 65.1861C139.546 75.8779 148.901 89.9108 144.224 96.5931Z" fill="white"/>
  <path d="M51.3419 49.816C51.3419 49.1478 50.6736 48.4795 50.0054 49.1478C49.3372 49.816 48.6689 49.816 48.6689 50.4842C49.3372 52.4889 50.0054 53.8254 50.0054 55.1619C50.0054 55.8301 50.6736 56.4983 51.3419 55.8301C52.0101 55.8301 52.6783 55.1619 52.0101 54.4936C52.0101 53.1572 52.0101 51.8207 51.3419 49.816Z" fill="white"/>
  <path d="M54.6805 60.5084C54.6805 59.8401 54.0122 59.1719 53.344 59.8401C52.6758 60.5084 52.6758 60.5084 52.6758 61.1766C60.0264 77.8825 75.3957 95.9248 95.4427 109.289C96.111 109.958 96.7792 109.289 97.4474 109.289C98.1157 108.621 97.4474 107.953 97.4474 107.285C76.7322 93.9201 62.0311 76.546 54.6805 60.5084Z" fill="white"/>
  <path d="M135.545 125.995C134.876 125.995 134.208 125.995 134.208 126.663C134.208 127.332 134.208 128 134.876 128C136.881 128.668 139.554 129.336 141.559 130.005C142.227 130.005 142.895 130.005 142.895 129.336C142.895 128.668 142.895 128 142.227 128C140.222 127.332 137.549 126.663 135.545 125.995Z" fill="white"/>
  <path d="M147.565 128.667C146.897 128.667 146.229 129.336 146.229 130.004C146.229 130.672 146.897 131.34 147.565 131.34C152.911 132.009 158.925 132.677 163.603 132.009C164.271 132.009 164.939 131.34 164.939 130.672C164.939 130.004 164.271 129.336 163.603 129.336C158.257 130.004 152.911 129.336 147.565 128.667Z" fill="white"/>
  <defs>
    <linearGradient id="paint0_linear_0_1" x1="78.3615" y1="22.3812" x2="103.01" y2="107.021" gradientUnits="userSpaceOnUse">
      <stop stop-color="#03B8FF"/>
      <stop offset="1" stop-color="#FA52A0"/>
    </linearGradient>
    <linearGradient id="paint1_linear_0_1" x1="98.6627" y1="16.4689" x2="123.312" y2="101.109" gradientUnits="userSpaceOnUse">
      <stop stop-color="#03B8FF"/>
      <stop offset="1" stop-color="#FA52A0"/>
    </linearGradient>
    <linearGradient id="paint2_linear_0_1" x1="58.1308" y1="28.2739" x2="82.78" y2="112.914" gradientUnits="userSpaceOnUse">
      <stop stop-color="#03B8FF"/>
      <stop offset="1" stop-color="#FA52A0"/>
    </linearGradient>
  </defs>
</svg>
