<svg width="200" height="218" viewBox="0 0 200 218" fill="none" xmlns="http://www.w3.org/2000/svg">
  <path d="M100 218C155.23 218 200 173.23 200 118C200 62.77 155.23 18 100 18C44.77 18 0 62.77 0 118C0 173.23 44.77 218 100 218Z" fill="#272C33"/>
  <path d="M74.0805 44.1743C72.0097 43.8785 71.9111 43.7799 72.8971 43.6812C74.7707 43.3854 79.1095 43.7799 82.1664 44.4701C89.2662 46.1465 95.6758 50.4853 102.48 58.0781L104.255 60.1489L106.819 59.7545C117.764 57.9795 129.006 59.36 138.373 63.6988C140.937 64.8821 144.98 67.2488 145.473 67.8404C145.67 68.0376 145.966 69.3195 146.164 70.6015C146.854 75.2361 146.558 78.6874 145.079 81.3498C144.29 82.829 144.29 83.2234 144.783 84.5053C145.177 85.4914 146.361 86.1816 147.445 86.1816C149.812 86.1816 152.277 82.4345 153.461 77.2082L153.954 75.1375L154.841 76.1236C159.87 81.7443 163.814 89.5344 164.406 95.0564L164.603 96.5356L163.716 95.2537C162.237 92.9857 160.856 91.5065 158.983 90.2246C155.63 87.9566 152.08 87.2663 142.712 86.7733C134.232 86.2803 129.4 85.59 124.667 84.0123C116.581 81.3498 112.439 77.8985 102.874 65.178C98.634 59.5573 95.9716 56.5004 93.3092 53.9366C87.4912 48.3159 81.6733 45.3576 74.0805 44.1743Z" fill="#FF007A"/>
  <path d="M147.544 56.698C147.742 52.9508 148.235 50.4856 149.319 48.2176C149.714 47.3301 150.108 46.5412 150.207 46.5412C150.305 46.5412 150.108 47.2315 149.812 48.0204C149.024 50.1898 148.925 53.2466 149.418 56.698C150.108 61.1354 150.404 61.727 155.137 66.5588C157.307 68.8269 159.87 71.6865 160.857 72.8698L162.533 75.0392L160.857 73.4615C158.786 71.4893 154.053 67.7421 152.968 67.2491C152.278 66.8547 152.179 66.8547 151.686 67.3477C151.292 67.7421 151.193 68.3338 151.193 71.1935C151.094 75.6309 150.503 78.3919 149.024 81.2516C148.235 82.7307 148.136 82.4349 148.826 80.7585C149.319 79.4766 149.418 78.8849 149.418 74.6448C149.418 66.0658 148.432 63.995 142.417 60.5437C140.938 59.6562 138.374 58.3743 136.895 57.684C135.317 56.9938 134.134 56.4021 134.232 56.4021C134.429 56.2049 140.247 57.8813 142.515 58.8674C145.967 60.2479 146.558 60.3465 146.953 60.2479C147.249 59.952 147.446 59.1632 147.544 56.698Z" fill="#FF007A"/>
  <path d="M78.1228 71.3905C73.9813 65.6712 71.3188 56.7964 71.9105 50.1896L72.1077 48.1188L73.0938 48.316C74.8687 48.6118 77.9256 49.7951 79.4047 50.6826C83.3491 53.0492 85.1241 56.3033 86.8004 64.3893C87.2935 66.7559 87.9837 69.5169 88.2795 70.4044C88.7726 71.8835 90.6462 75.3348 92.2239 77.5042C93.3086 79.082 92.6183 79.8708 90.1531 79.6736C86.406 79.2792 81.3769 75.8279 78.1228 71.3905Z" fill="#FF007A"/>
  <path d="M142.514 114.286C122.989 106.397 116.087 99.5928 116.087 88.0556C116.087 86.3792 116.185 84.9987 116.185 84.9987C116.284 84.9987 116.974 85.5903 117.862 86.2806C121.806 89.4361 126.243 90.8166 138.569 92.5916C145.768 93.6763 149.91 94.4651 153.657 95.7471C165.588 99.6914 172.984 107.777 174.759 118.723C175.252 121.878 174.956 127.894 174.167 131.049C173.477 133.514 171.505 138.05 171.012 138.149C170.913 138.149 170.716 137.656 170.716 136.867C170.519 132.725 168.448 128.781 164.997 125.724C160.855 122.174 155.53 119.512 142.514 114.286Z" fill="#FF007A"/>
  <path d="M128.709 117.539C128.511 116.06 128.018 114.187 127.722 113.398L127.229 111.919L128.117 113.003C129.399 114.483 130.385 116.258 131.272 118.723C131.963 120.596 131.963 121.188 131.963 124.245C131.963 127.203 131.864 127.893 131.272 129.57C130.286 132.232 129.103 134.106 127.131 136.177C123.581 139.825 118.946 141.797 112.339 142.685C111.156 142.783 107.803 143.079 104.845 143.276C97.4495 143.671 92.5191 144.46 88.0817 146.037C87.49 146.235 86.8984 146.432 86.7998 146.333C86.6026 146.136 89.6594 144.361 92.1247 143.178C95.576 141.501 99.1259 140.614 106.916 139.233C110.762 138.642 114.706 137.853 115.692 137.458C125.454 134.402 130.286 126.809 128.709 117.539Z" fill="#FF007A"/>
  <path d="M137.683 133.415C135.119 127.795 134.528 122.47 135.908 117.441C136.105 116.948 136.302 116.455 136.5 116.455C136.697 116.455 137.289 116.751 137.88 117.145C139.064 117.934 141.529 119.314 147.84 122.766C155.827 127.104 160.363 130.457 163.519 134.303C166.28 137.656 167.956 141.501 168.745 146.235C169.238 148.897 168.942 155.307 168.252 157.969C166.082 166.351 161.152 173.056 153.953 176.902C152.869 177.494 151.981 177.888 151.883 177.888C151.784 177.888 152.178 176.902 152.77 175.719C155.137 170.69 155.433 165.858 153.658 160.434C152.573 157.082 150.305 153.039 145.769 146.235C140.345 138.346 139.064 136.275 137.683 133.415Z" fill="#FF007A"/>
  <path d="M64.2191 163.59C71.5162 157.476 80.4896 153.137 88.7727 151.757C92.3226 151.165 98.2392 151.362 101.493 152.25C106.72 153.63 111.453 156.589 113.918 160.237C116.285 163.787 117.369 166.844 118.454 173.648C118.848 176.31 119.341 179.072 119.44 179.663C120.229 183.213 121.807 185.974 123.779 187.453C126.836 189.721 132.161 189.82 137.387 187.848C138.274 187.552 139.063 187.256 139.063 187.355C139.26 187.552 136.598 189.327 134.823 190.214C132.358 191.496 130.386 191.891 127.723 191.891C122.99 191.891 118.947 189.425 115.693 184.495C115.003 183.509 113.622 180.649 112.439 177.987C108.988 170 107.213 167.633 103.17 164.97C99.6197 162.702 95.0837 162.209 91.6324 163.886C87.0964 166.055 85.9131 171.873 89.0685 175.423C90.3504 176.902 92.7171 178.085 94.6892 178.381C98.3378 178.874 101.493 176.015 101.493 172.366C101.493 170 100.606 168.619 98.2392 167.534C95.0837 166.154 91.6324 167.732 91.731 170.788C91.731 172.07 92.3226 172.859 93.6045 173.451C94.3934 173.845 94.3934 173.845 93.8018 173.747C90.9421 173.155 90.2518 169.605 92.5198 167.337C95.2809 164.576 101.099 165.759 103.071 169.605C103.86 171.183 103.958 174.338 103.268 176.31C101.592 180.649 96.8586 182.917 92.0268 181.635C88.7727 180.748 87.3922 179.86 83.4478 175.817C76.5452 168.718 73.8828 167.337 64.0219 165.858L62.1483 165.562L64.2191 163.59Z" fill="#FF007A"/>
  <path fill-rule="evenodd" clip-rule="evenodd" d="M12.3512 4.92817C35.3271 32.8345 70.7277 76.2224 72.5026 78.589C73.9818 80.5612 73.3901 82.4347 70.9249 83.8153C69.5444 84.6041 66.6847 85.393 65.3042 85.393C63.7264 85.393 61.8529 84.6041 60.571 83.3222C59.6835 82.4347 55.8377 76.814 47.1602 63.3046C40.5534 52.9507 34.9327 44.3717 34.834 44.2731C34.4396 44.0759 34.4396 44.0759 46.4699 65.5726C54.0628 79.082 56.528 83.9139 56.528 84.5055C56.528 85.7874 56.1336 86.4777 54.5558 88.2527C51.8934 91.2109 50.7101 94.5636 49.8226 101.565C48.8365 109.355 46.1741 114.877 38.5812 124.245C34.1438 129.767 33.4535 130.753 32.3688 133.021C30.9883 135.782 30.5939 137.36 30.3967 140.91C30.1994 144.657 30.5939 147.024 31.6786 150.573C32.6647 153.729 33.7493 155.8 36.4118 159.843C38.6798 163.393 40.0603 166.055 40.0603 167.041C40.0603 167.83 40.2575 167.83 43.8075 167.041C52.2878 165.069 59.289 161.716 63.1348 157.575C65.5014 155.011 66.0931 153.63 66.0931 150.08C66.0931 147.812 65.9944 147.319 65.4028 145.939C64.4167 143.769 62.5431 141.994 58.5002 139.233C53.1753 135.585 50.9073 132.627 50.3156 128.682C49.8226 125.33 50.4142 123.062 53.3725 116.849C56.4294 110.44 57.2183 107.777 57.7113 101.269C58.0071 97.1274 58.5002 95.4511 59.6835 94.1692C60.9654 92.7887 62.0501 92.2956 65.107 91.9012C70.136 91.2109 73.3901 89.929 75.9539 87.4638C78.2219 85.393 79.208 83.3222 79.3066 80.2653L79.4053 77.9973L78.1233 76.6168C73.4887 71.2919 9.29435 0.687988 8.99853 0.687988C8.89992 0.687988 10.4777 2.56156 12.3512 4.92817ZM42.6241 145.15C43.7088 143.276 43.1172 140.91 41.3422 139.726C39.6659 138.642 37.1021 139.135 37.1021 140.614C37.1021 141.008 37.2993 141.403 37.8909 141.6C38.7784 142.093 38.877 142.586 38.1867 143.671C37.4965 144.756 37.4965 145.742 38.384 146.432C39.7645 147.517 41.6381 146.925 42.6241 145.15Z" fill="#FF007A"/>
  <path fill-rule="evenodd" clip-rule="evenodd" d="M82.5601 93.2816C80.1935 93.9719 77.9255 96.5357 77.2352 99.0996C76.8408 100.677 77.038 103.537 77.7283 104.424C78.813 105.805 79.799 106.199 82.5601 106.199C87.9836 106.199 92.6182 103.833 93.1112 100.973C93.6043 98.6065 91.5335 95.3524 88.6738 93.8733C87.1947 93.0844 84.1378 92.7886 82.5601 93.2816ZM88.8711 98.2121C89.6599 97.0288 89.3641 95.7469 87.885 94.8594C85.2225 93.183 81.1796 94.5636 81.1796 97.1274C81.1796 98.4093 83.2504 99.7898 85.2225 99.7898C86.5044 99.7898 88.2794 99.001 88.8711 98.2121Z" fill="#FF007A"/>
</svg>
