<svg width="200" height="200" viewBox="0 0 200 200" fill="none" xmlns="http://www.w3.org/2000/svg">
  <path d="M100 200C155.417 200 200 155.417 200 100C200 44.5831 155.417 6.10352e-05 100 6.10352e-05C44.583 6.10352e-05 0 44.5831 0 100C0 155.417 44.583 200 100 200Z" fill="#2775CA"/>
  <path d="M127.5 115.833C127.5 101.25 118.75 96.25 101.25 94.167C88.75 92.5 86.25 89.167 86.25 83.333C86.25 77.499 90.417 73.75 98.75 73.75C106.25 73.75 110.417 76.25 112.5 82.5C112.917 83.75 114.167 84.583 115.417 84.583H122.083C123.75 84.583 125 83.333 125 81.667V81.25C123.333 72.083 115.833 65 106.25 64.167V54.167C106.25 52.5 105 51.25 102.917 50.833H96.667C95 50.833 93.75 52.083 93.333 54.167V63.75C80.833 65.417 72.917 73.75 72.917 84.167C72.917 97.917 81.25 103.333 98.75 105.417C110.417 107.5 114.167 110 114.167 116.667C114.167 123.334 108.333 127.917 100.417 127.917C89.583 127.917 85.833 123.333 84.583 117.083C84.167 115.417 82.917 114.583 81.667 114.583H74.583C72.917 114.583 71.667 115.833 71.667 117.5V117.917C73.333 128.333 80 135.833 93.75 137.917V147.917C93.75 149.583 95 150.833 97.083 151.25H103.333C105 151.25 106.25 150 106.667 147.917V137.917C119.167 135.833 127.5 127.083 127.5 115.833Z" fill="white"/>
  <path d="M78.7501 159.583C46.2501 147.917 29.5831 111.667 41.6671 79.583C47.9171 62.083 61.6671 48.7501 78.7501 42.5001C80.4171 41.6671 81.2501 40.417 81.2501 38.333V32.5001C81.2501 30.8331 80.4171 29.5831 78.7501 29.1671C78.3331 29.1671 77.5001 29.1671 77.0831 29.5831C37.5001 42.083 15.8331 84.167 28.3331 123.75C35.8331 147.083 53.7501 165 77.0831 172.5C78.7501 173.333 80.4171 172.5 80.8331 170.833C81.2501 170.417 81.2501 170 81.2501 169.167V163.333C81.2501 162.083 80.0001 160.417 78.7501 159.583ZM122.917 29.5831C121.25 28.7501 119.583 29.5831 119.167 31.2501C118.75 31.6671 118.75 32.0831 118.75 32.9171V38.7501C118.75 40.4171 120 42.0831 121.25 42.9171C153.75 54.5831 170.417 90.833 158.333 122.917C152.083 140.417 138.333 153.75 121.25 160C119.583 160.833 118.75 162.083 118.75 164.167V170C118.75 171.667 119.583 172.917 121.25 173.333C121.667 173.333 122.5 173.333 122.917 172.917C162.5 160.417 184.167 118.333 171.667 78.75C164.167 55 145.833 37.0831 122.917 29.5831Z" fill="white"/>
</svg>
