<svg width="200" height="201" viewBox="0 0 200 201" fill="none" xmlns="http://www.w3.org/2000/svg">
  <path d="M100 200.68C155.228 200.68 200 155.908 200 100.68C200 45.4514 155.228 0.679932 100 0.679932C44.7715 0.679932 0 45.4514 0 100.68C0 155.908 44.7715 200.68 100 200.68Z" fill="#26A17B"/>
  <path d="M110.658 109.908V109.892C109.967 109.94 106.398 110.149 98.4557 110.149C92.1052 110.149 87.6518 109.972 86.0762 109.892V109.908C61.655 108.831 43.4396 104.586 43.4396 99.49C43.4396 94.4096 61.6711 90.1491 86.0762 89.0719V105.68C87.6679 105.792 92.2499 106.066 98.5682 106.066C106.157 106.066 109.951 105.744 110.658 105.68V89.088C135.031 90.1813 153.198 94.4257 153.198 99.506C153.198 104.586 135.015 108.831 110.658 109.924V109.908ZM110.658 87.3678V72.5125H144.661V49.8597H52.0891V72.5125H86.0923V87.3678C58.4557 88.6379 37.684 94.1041 37.684 100.664C37.684 107.223 58.4717 112.689 86.0923 113.975V161.596H110.674V113.975C138.263 112.705 159.002 107.239 159.002 100.68C159.002 94.1363 138.263 88.6539 110.674 87.3839" fill="white"/>
</svg>
