<svg width="201" height="200" viewBox="0 0 201 200" fill="none" xmlns="http://www.w3.org/2000/svg">
  <path d="M101 200C156.23 200 201 155.23 201 100C201 44.77 156.23 0 101 0C45.77 0 1 44.77 1 100C1 155.23 45.77 200 101 200Z" fill="#272C33"/>
  <path d="M164.077 41.9733L158.585 47.4648C171.689 61.7945 178.955 80.5092 178.955 99.9268C178.955 119.344 171.689 138.059 158.585 152.389L164.077 157.88C178.649 142.074 186.74 121.362 186.74 99.8628C186.74 78.3637 178.649 57.6519 164.077 41.8452V41.9733Z" fill="#5A5564"/>
  <path d="M48.5903 42.4491C62.92 29.3455 81.6347 22.0788 101.052 22.0788C120.47 22.0788 139.185 29.3455 153.514 42.4491L159.006 36.9576C143.199 22.385 122.487 14.2944 100.988 14.2944C79.4892 14.2944 58.7774 22.385 42.9707 36.9576L48.5903 42.4491Z" fill="#5A5564"/>
  <path d="M43.4461 152.444C30.3581 138.117 23.101 119.414 23.101 100.009C23.101 80.6042 30.3581 61.901 43.4461 47.5745L37.9546 42.083C23.3821 57.8897 15.2915 78.6015 15.2915 100.101C15.2915 121.6 23.3821 142.311 37.9546 158.118L43.4461 152.444Z" fill="#5A5564"/>
  <path d="M153.443 157.514C139.114 170.618 120.399 177.884 100.981 177.884C81.5637 177.884 62.849 170.618 48.5193 157.514L43.0278 163.006C58.8345 177.578 79.5463 185.669 101.045 185.669C122.544 185.669 143.256 177.578 159.063 163.006L153.443 157.514Z" fill="#5A5564"/>
  <path d="M135.666 81.6767C134.568 70.2178 124.683 66.3737 112.181 65.2022V49.4233H102.516V64.9093C99.9712 64.9093 97.3719 64.9093 94.7909 64.9093V49.4233H85.1991V65.312H65.5945V75.6543C65.5945 75.6543 72.7334 75.5262 72.6236 75.6543C73.9108 75.5127 75.2027 75.8763 76.2271 76.6685C77.2515 77.4607 77.9284 78.6197 78.1151 79.9011V123.394C78.0876 123.846 77.9697 124.287 77.7685 124.693C77.5673 125.099 77.2868 125.46 76.9436 125.755C76.6068 126.056 76.2127 126.286 75.7848 126.43C75.357 126.575 74.9044 126.632 74.4541 126.597C74.5822 126.707 67.425 126.597 67.425 126.597L65.5945 138.147H85.016V154.292H94.6811V138.385H102.406V154.219H112.089V138.257C128.417 137.269 139.803 133.242 141.231 117.957C142.384 105.656 136.599 100.165 127.355 97.9498C132.975 95.1857 136.453 90.0603 135.666 81.6767ZM122.12 116.053C122.12 128.061 101.545 126.689 94.9922 126.689V105.382C101.545 105.4 122.12 103.514 122.12 116.053ZM117.635 86.0333C117.635 97.0162 100.465 95.68 95.0105 95.68V76.3133C100.465 76.3133 117.635 74.5927 117.635 86.0333Z" fill="#F09242"/>
  <path d="M100.98 200C81.2032 199.996 61.8717 194.129 45.4296 183.139C28.9875 172.15 16.1731 156.532 8.60663 138.26C1.04014 119.988 -0.938648 99.8829 2.92046 80.4865C6.77956 61.0901 16.3033 43.2735 30.2874 29.2894C44.2715 15.3052 62.0882 5.78151 81.4846 1.92241C100.881 -1.9367 120.986 0.0420949 139.258 7.60859C157.53 15.1751 173.148 27.9895 184.137 44.4316C195.127 60.8737 200.994 80.2051 200.998 99.9817C201 113.117 198.415 126.124 193.389 138.26C188.364 150.396 180.997 161.423 171.709 170.711C162.421 179.999 151.394 187.366 139.258 192.391C127.122 197.417 114.115 200.002 100.98 200ZM100.98 7.79796C82.7595 7.81243 64.9524 13.2282 49.8093 23.3606C34.6662 33.493 22.8669 47.8873 15.9026 64.7242C8.93837 81.561 7.12186 100.085 10.6827 117.953C14.2435 135.822 23.0218 152.235 35.908 165.116C48.7943 177.997 65.2101 186.769 83.0804 190.323C100.951 193.876 119.474 192.052 136.308 185.081C153.142 178.111 167.531 166.305 177.658 151.158C187.784 136.011 193.193 118.202 193.2 99.9817C193.205 87.8715 190.823 75.8792 186.189 64.6904C181.556 53.5015 174.763 43.3358 166.198 34.7743C157.633 26.2128 147.465 19.4235 136.274 14.7947C125.083 10.1659 113.09 7.78833 100.98 7.79796Z" fill="#5A5564"/>
</svg>
