<svg width="256" height="256" viewBox="0 0 256 256" fill="none" xmlns="http://www.w3.org/2000/svg">
<path fill-rule="evenodd" clip-rule="evenodd" d="M18.8719 194.93C20.9769 198.355 23.2387 201.674 25.6471 204.875L41.3708 195.797C38.897 192.641 36.592 189.345 34.4693 185.925L18.8719 194.93ZM224.936 75.9595C226.831 79.4833 228.54 83.1222 230.05 86.8632L245.775 77.7846C244.194 74.0815 242.443 70.4682 240.533 66.9543L224.936 75.9595ZM234.312 56.6897L218.68 65.7149C216.387 62.3832 213.915 59.1841 211.279 56.1316L227.109 46.9917C229.657 50.1055 232.062 53.3415 234.312 56.6897ZM28.7063 175.396L13.074 184.421C11.3029 180.821 9.69602 177.124 8.26315 173.343L24.096 164.202C25.4311 168.034 26.9723 171.77 28.7063 175.396ZM1.56467 107.928C2.41911 102.503 3.61437 97.1906 5.12784 92.0143L30.2446 77.5132C27.2607 83.2791 24.7719 89.3427 22.8346 95.6477L1.56467 107.928ZM46.2176 54.4348C61.5136 37.4412 82.0303 25.2401 105.242 20.3571L139.603 0.518788C135.781 0.175408 131.911 0 128 0C76.4741 0 32.0591 30.445 11.7626 74.3274L46.2176 54.4348ZM152.558 20.7517C146.268 19.3172 139.772 18.4219 133.122 18.1171L158.267 3.59946C163.6 4.89255 168.803 6.51972 173.852 8.45756L152.558 20.7517ZM107.832 254.42C114.402 255.46 121.138 256 128 256C182.58 256 229.181 221.839 247.589 173.732L218.522 190.513C200.253 216.918 170.729 234.941 136.885 237.646L107.832 254.42ZM229.585 170.269L252.721 156.912C253.877 151.905 254.739 146.786 255.289 141.574L235.092 153.234C233.713 159.108 231.864 164.8 229.585 170.269ZM113.837 237.097L90.6715 250.471C85.6737 248.95 80.8055 247.131 76.0876 245.035L96.3025 233.364C101.969 235.067 107.827 236.324 113.837 237.097ZM4.47535 161.673C3.38097 157.649 2.47797 153.546 1.77673 149.375L18.6102 139.656C19.0627 143.952 19.7625 148.174 20.695 152.309L4.47535 161.673ZM202.683 47.2378C199.548 44.3376 196.245 41.6176 192.788 39.0944L209.607 29.3838C212.841 32.0629 215.941 34.898 218.895 37.8776L202.683 47.2378ZM181.404 31.8105L199.137 21.5721C195.335 19.0256 191.389 16.6774 187.313 14.5424L168.2 25.5772C172.758 27.3674 177.167 29.453 181.404 31.8105ZM0.270447 136.388L18.0154 126.143C18.0971 121.207 18.5038 116.351 19.2152 111.594L0.110865 122.624C0.0371971 124.407 0 126.199 0 128C0 130.818 0.0910766 133.615 0.270447 136.388ZM52.1704 231.131C55.7681 233.781 59.5095 236.247 63.3807 238.515L81.8232 227.868C77.5471 225.887 73.4197 223.64 69.4622 221.148L52.1704 231.131ZM237.924 123.886C237.975 125.251 238 126.623 238 128C238 131.356 237.85 134.676 237.556 137.955L255.998 127.308C255.974 122.777 255.715 118.302 255.232 113.894L237.924 123.886ZM253.193 101.214L236.657 110.761C235.998 106.574 235.103 102.464 233.985 98.4477L250.012 89.1945C251.26 93.1223 252.324 97.1323 253.193 101.214ZM58.7539 213.474L42.2295 223.014C39.1527 220.235 36.2115 217.308 33.4171 214.246L49.4394 204.995C52.3791 207.994 55.4891 210.826 58.7539 213.474Z" fill="#B3BDC7"/>
<path d="M128 228C183.23 228 228 183.23 228 128C228 72.77 183.23 28 128 28C72.77 28 28 72.77 28 128C28 183.23 72.77 228 128 228Z" fill="#272C33"/>
<path d="M140.97 69.4062C129.585 69.4107 118.668 73.937 110.62 81.9897C102.572 90.0424 98.0525 100.962 98.0549 112.347V112.347C98.0549 112.377 98.0549 112.406 98.0549 112.436V112.506C98.0856 113.046 98.3216 113.553 98.7146 113.923C99.1076 114.294 99.6277 114.5 100.168 114.499H181.771C182.311 114.5 182.831 114.294 183.224 113.923C183.616 113.553 183.852 113.046 183.883 112.506L183.886 112.436C183.886 112.406 183.886 112.377 183.886 112.347C183.889 100.962 179.369 90.0418 171.32 81.989C163.272 73.9362 152.355 69.4102 140.97 69.4062V69.4062Z" fill="#53CBC8"/>
<path d="M69.6418 160.291C69.6414 160.807 69.4879 161.312 69.2007 161.741C68.9135 162.17 68.5055 162.505 68.0283 162.702C67.5511 162.899 67.0261 162.951 66.5197 162.85C66.0132 162.749 65.5481 162.5 65.183 162.135C64.818 161.77 64.5694 161.304 64.4687 160.798C64.368 160.291 64.4198 159.766 64.6174 159.289C64.815 158.812 65.1496 158.404 65.579 158.117C66.0083 157.83 66.5131 157.677 67.0295 157.677C67.3726 157.677 67.7125 157.745 68.0295 157.876C68.3465 158.007 68.6346 158.2 68.8772 158.443C69.1198 158.685 69.3121 158.974 69.4433 159.291C69.5745 159.608 69.642 159.948 69.6418 160.291V160.291Z" fill="#E1147B"/>
<path d="M178.932 145.833H91.3722C90.9268 145.833 90.4891 145.949 90.102 146.17C89.7148 146.39 89.3914 146.707 89.1634 147.09C88.9354 147.472 88.8106 147.908 88.8011 148.353C88.7916 148.798 88.8979 149.239 89.1094 149.631C89.1234 149.658 89.1381 149.685 89.1528 149.712C89.3733 150.12 89.7002 150.461 90.0987 150.698C90.4972 150.935 90.9526 151.06 91.4164 151.059H178.89C179.354 151.06 179.809 150.935 180.208 150.698C180.606 150.46 180.933 150.12 181.154 149.712L181.197 149.631C181.408 149.238 181.514 148.798 181.505 148.353C181.495 147.907 181.37 147.472 181.142 147.089C180.914 146.706 180.59 146.39 180.203 146.169C179.815 145.949 179.378 145.833 178.932 145.833V145.833Z" fill="#E1147B"/>
<path d="M190.566 122.143H91.3701C91.02 122.143 90.6737 122.216 90.3523 122.355C90.031 122.494 89.7414 122.697 89.5011 122.952C89.2609 123.206 89.075 123.507 88.9549 123.836C88.8348 124.165 88.783 124.515 88.8026 124.865C88.8026 124.892 88.8026 124.919 88.8068 124.947C88.8437 125.602 89.1306 126.219 89.6083 126.67C90.086 127.12 90.7183 127.371 91.375 127.369H190.566C191.223 127.371 191.855 127.12 192.333 126.67C192.811 126.219 193.097 125.602 193.134 124.947C193.134 124.919 193.134 124.892 193.139 124.865C193.158 124.515 193.106 124.164 192.986 123.835C192.866 123.506 192.679 123.205 192.438 122.95C192.198 122.695 191.907 122.492 191.586 122.353C191.264 122.214 190.917 122.143 190.566 122.143V122.143Z" fill="#E1147B"/>
<path d="M153.217 181.367H108.512C107.932 181.367 107.369 181.563 106.915 181.924C106.46 182.284 106.14 182.787 106.008 183.351C105.875 183.916 105.937 184.509 106.183 185.034C106.429 185.559 106.846 185.985 107.365 186.244L107.529 186.326C107.885 186.503 108.277 186.595 108.675 186.594H153.052C153.45 186.595 153.843 186.503 154.199 186.326L154.362 186.244C154.881 185.986 155.298 185.559 155.544 185.034C155.79 184.51 155.852 183.917 155.72 183.353C155.587 182.788 155.268 182.285 154.814 181.925C154.36 181.564 153.797 181.368 153.217 181.367Z" fill="#E1147B"/>
<path d="M180.53 169.522H135.826C135.246 169.523 134.684 169.72 134.23 170.08C133.776 170.44 133.457 170.943 133.324 171.507C133.192 172.072 133.253 172.664 133.499 173.189C133.745 173.714 134.161 174.14 134.679 174.399L134.842 174.481C135.199 174.658 135.592 174.749 135.99 174.748H180.364C180.762 174.749 181.154 174.658 181.511 174.481L181.674 174.399C182.192 174.14 182.608 173.714 182.854 173.189C183.1 172.665 183.162 172.073 183.029 171.508C182.897 170.944 182.578 170.441 182.125 170.081C181.671 169.721 181.109 169.524 180.53 169.522V169.522Z" fill="#E1147B"/>
<path d="M119.573 162.081L119.497 161.999C119.156 161.632 118.93 161.174 118.846 160.68C118.763 160.186 118.825 159.679 119.025 159.22C119.225 158.761 119.555 158.371 119.974 158.096C120.393 157.822 120.883 157.676 121.384 157.676H193.94C194.441 157.676 194.931 157.822 195.35 158.096C195.769 158.371 196.099 158.761 196.299 159.22C196.499 159.679 196.561 160.186 196.477 160.68C196.393 161.174 196.167 161.632 195.827 161.999L195.751 162.081C195.509 162.339 195.218 162.546 194.893 162.687C194.569 162.828 194.219 162.902 193.865 162.903H121.459C121.105 162.902 120.755 162.828 120.431 162.687C120.106 162.546 119.814 162.339 119.573 162.081V162.081Z" fill="#E1147B"/>
<path d="M76.3582 157.677H111.006C111.585 157.678 112.148 157.875 112.602 158.235C113.056 158.595 113.375 159.098 113.507 159.662C113.64 160.227 113.578 160.819 113.332 161.344C113.087 161.869 112.671 162.295 112.152 162.554L111.989 162.636C111.633 162.813 111.24 162.905 110.843 162.904H76.5255C76.1275 162.905 75.7347 162.813 75.3783 162.636L75.2152 162.554C74.697 162.295 74.2814 161.869 74.0355 161.345C73.7895 160.82 73.7276 160.228 73.8598 159.664C73.9919 159.1 74.3105 158.597 74.7638 158.237C75.2172 157.876 75.7789 157.679 76.3582 157.677V157.677Z" fill="#E1147B"/>
<path d="M84.6539 124.756C84.6536 125.272 84.5002 125.777 84.2131 126.206C83.926 126.635 83.518 126.97 83.0408 127.167C82.5637 127.365 82.0387 127.416 81.5322 127.315C81.0257 127.215 80.5605 126.966 80.1953 126.601C79.8302 126.235 79.5816 125.77 79.4808 125.264C79.3801 124.757 79.4318 124.232 79.6294 123.755C79.827 123.278 80.1616 122.87 80.5909 122.583C81.0203 122.296 81.5251 122.143 82.0416 122.143C82.3847 122.143 82.7244 122.21 83.0414 122.341C83.3584 122.473 83.6464 122.665 83.889 122.908C84.1316 123.151 84.324 123.439 84.4552 123.756C84.5865 124.073 84.654 124.412 84.6539 124.756Z" fill="#E1147B"/>
<path d="M146.222 137.307C146.229 137.28 146.236 137.252 146.244 137.225C146.346 136.844 146.359 136.445 146.282 136.058C146.205 135.671 146.04 135.307 145.8 134.994C145.559 134.681 145.25 134.427 144.896 134.253C144.542 134.079 144.153 133.988 143.759 133.988H71.1911C70.7965 133.988 70.4071 134.078 70.0531 134.253C69.6991 134.427 69.3899 134.681 69.1496 134.994C68.9092 135.307 68.7442 135.671 68.6672 136.058C68.5902 136.445 68.6033 136.844 68.7056 137.225C68.7126 137.252 68.7203 137.28 68.728 137.307C68.8751 137.853 69.1981 138.336 69.6471 138.681C70.0961 139.026 70.646 139.213 71.2121 139.214H143.738C144.304 139.213 144.854 139.026 145.303 138.681C145.752 138.336 146.075 137.853 146.222 137.307" fill="#E1147B"/>
<path d="M64.4732 136.601C64.4729 137.117 64.3195 137.622 64.0324 138.051C63.7453 138.48 63.3373 138.815 62.8601 139.012C62.3828 139.21 61.8578 139.261 61.3512 139.16C60.8447 139.06 60.3795 138.811 60.0144 138.445C59.6493 138.08 59.4007 137.615 59.3001 137.108C59.1994 136.602 59.2512 136.077 59.4489 135.599C59.6466 135.122 59.9813 134.715 60.4108 134.428C60.8402 134.141 61.3451 133.988 61.8616 133.988C62.5544 133.988 63.2186 134.263 63.7083 134.753C64.1981 135.243 64.4732 135.908 64.4732 136.601V136.601Z" fill="#E1147B"/>
<path d="M84.6539 148.446C84.6536 148.962 84.5002 149.467 84.2131 149.896C83.926 150.325 83.518 150.66 83.0408 150.857C82.5637 151.055 82.0387 151.106 81.5322 151.005C81.0257 150.905 80.5605 150.656 80.1953 150.291C79.8302 149.925 79.5816 149.46 79.4808 148.954C79.3801 148.447 79.4318 147.922 79.6294 147.445C79.827 146.968 80.1616 146.56 80.5909 146.273C81.0203 145.986 81.5251 145.833 82.0416 145.833C82.7345 145.833 83.3989 146.108 83.8888 146.598C84.3787 147.088 84.6539 147.753 84.6539 148.446V148.446Z" fill="#E1147B"/>
<path d="M129.109 172.136C129.109 172.652 128.956 173.157 128.668 173.586C128.381 174.015 127.973 174.35 127.496 174.547C127.019 174.745 126.494 174.796 125.987 174.695C125.481 174.595 125.016 174.346 124.651 173.981C124.286 173.615 124.037 173.15 123.936 172.644C123.835 172.137 123.887 171.612 124.085 171.135C124.282 170.658 124.617 170.25 125.046 169.963C125.476 169.676 125.98 169.523 126.497 169.523C126.84 169.523 127.18 169.59 127.497 169.721C127.814 169.853 128.102 170.045 128.344 170.288C128.587 170.531 128.779 170.819 128.911 171.136C129.042 171.453 129.109 171.792 129.109 172.136Z" fill="#E1147B"/>
<path d="M101.794 183.981C101.794 184.497 101.64 185.002 101.353 185.431C101.066 185.861 100.658 186.195 100.181 186.393C99.7037 186.59 99.1787 186.642 98.6722 186.541C98.1657 186.44 97.7004 186.191 97.3353 185.826C96.9702 185.46 96.7217 184.995 96.621 184.488C96.5203 183.982 96.5721 183.457 96.7698 182.98C96.9676 182.502 97.3023 182.095 97.7318 181.808C98.1612 181.521 98.666 181.368 99.1825 181.368C99.5256 181.368 99.8653 181.436 100.182 181.567C100.499 181.698 100.787 181.891 101.03 182.133C101.272 182.376 101.464 182.664 101.596 182.981C101.727 183.298 101.794 183.638 101.794 183.981Z" fill="#E1147B"/>
</svg>
