<svg width="257" height="256" viewBox="0 0 257 256" fill="none" xmlns="http://www.w3.org/2000/svg">
  <path fill-rule="evenodd" clip-rule="evenodd" d="M19.868 194.93C21.973 198.355 24.2348 201.674 26.6432 204.875L42.3669 195.797C39.8931 192.641 37.5881 189.345 35.4654 185.925L19.868 194.93ZM225.932 75.9595C227.827 79.4833 229.537 83.1222 231.046 86.8632L246.771 77.7846C245.19 74.0815 243.439 70.4682 241.529 66.9543L225.932 75.9595ZM235.308 56.6897L219.676 65.7149C217.383 62.3832 214.911 59.1841 212.275 56.1316L228.105 46.9917C230.653 50.1055 233.058 53.3415 235.308 56.6897ZM29.7024 175.396L14.0701 184.421C12.299 180.821 10.6921 177.124 9.25924 173.343L25.0921 164.202C26.4272 168.034 27.9684 171.77 29.7024 175.396ZM2.56076 107.928C3.41521 102.503 4.61047 97.1906 6.12393 92.0143L31.2407 77.5132C28.2568 83.2791 25.768 89.3427 23.8307 95.6477L2.56076 107.928ZM47.2137 54.4348C62.5097 37.4412 83.0264 25.2401 106.238 20.3571L140.599 0.518788C136.777 0.175408 132.907 0 128.996 0C77.4702 0 33.0552 30.445 12.7587 74.3274L47.2137 54.4348ZM153.554 20.7517C147.264 19.3172 140.768 18.4219 134.118 18.1171L159.263 3.59946C164.597 4.89255 169.799 6.51972 174.848 8.45756L153.554 20.7517ZM108.828 254.42C115.398 255.46 122.134 256 128.996 256C183.576 256 230.177 221.839 248.585 173.732L219.519 190.513C201.249 216.918 171.725 234.941 137.881 237.646L108.828 254.42ZM230.582 170.269L253.717 156.912C254.873 151.905 255.736 146.786 256.285 141.574L236.088 153.234C234.709 159.108 232.86 164.8 230.582 170.269ZM114.833 237.097L91.6676 250.471C86.6698 248.95 81.8016 247.131 77.0837 245.035L97.2986 233.364C102.965 235.067 108.823 236.324 114.833 237.097ZM5.47145 161.673C4.37706 157.649 3.47406 153.546 2.77283 149.375L19.6063 139.656C20.0588 143.952 20.7586 148.174 21.6911 152.309L5.47145 161.673ZM203.679 47.2378C200.545 44.3376 197.241 41.6176 193.784 39.0944L210.603 29.3838C213.837 32.0629 216.937 34.898 219.891 37.8776L203.679 47.2378ZM182.4 31.8105L200.133 21.5721C196.331 19.0256 192.385 16.6774 188.309 14.5424L169.196 25.5772C173.754 27.3674 178.163 29.453 182.4 31.8105ZM1.26654 136.388L19.0115 126.143C19.0932 121.207 19.4999 116.351 20.2113 111.594L1.10696 122.624C1.03329 124.407 0.996094 126.199 0.996094 128C0.996094 130.818 1.08717 133.615 1.26654 136.388ZM53.1665 231.131C56.7642 233.781 60.5056 236.247 64.3768 238.515L82.8193 227.868C78.5432 225.887 74.4158 223.64 70.4583 221.148L53.1665 231.131ZM238.921 123.886C238.971 125.251 238.996 126.623 238.996 128C238.996 131.356 238.846 134.676 238.552 137.955L256.994 127.308C256.97 122.777 256.711 118.302 256.228 113.894L238.921 123.886ZM254.189 101.214L237.653 110.761C236.994 106.574 236.099 102.464 234.981 98.4477L251.008 89.1945C252.256 93.1223 253.32 97.1323 254.189 101.214ZM59.75 213.474L43.2256 223.014C40.1488 220.235 37.2076 217.308 34.4132 214.246L50.4355 204.995C53.3752 207.994 56.4852 210.826 59.75 213.474Z" fill="#B3BDC7"/>
  <path d="M129 228C184.228 228 229 183.228 229 128C229 72.7715 184.228 28 129 28C73.7715 28 29 72.7715 29 128C29 183.228 73.7715 228 129 228Z" fill="#31CB98"/>
  <path d="M120.728 127.991L180.387 162.164C180.867 162.452 181.414 162.607 181.974 162.614C182.533 162.62 183.084 162.477 183.57 162.2C184.056 161.923 184.459 161.522 184.739 161.037C185.018 160.553 185.164 160.002 185.16 159.443V96.4903C185.167 95.9299 185.023 95.378 184.744 94.8922C184.465 94.4065 184.06 94.0048 183.572 93.7291C183.084 93.4534 182.531 93.314 181.971 93.3253C181.411 93.3367 180.864 93.4985 180.387 93.7937L120.728 127.991Z" fill="white"/>
  <path d="M179.123 78.6639L138.339 48.667C137.915 48.343 137.418 48.1285 136.892 48.0425C136.365 47.9564 135.825 48.0015 135.32 48.1738C134.815 48.3461 134.361 48.6401 133.997 49.03C133.632 49.4199 133.37 49.8936 133.232 50.4091L118.341 117.228L178.765 83.8185C179.224 83.582 179.615 83.2309 179.9 82.7992C180.184 82.3675 180.353 81.8697 180.389 81.354C180.425 80.8382 180.327 80.3219 180.105 79.8548C179.883 79.3878 179.545 78.9858 179.123 78.6878" fill="white"/>
  <path d="M138.291 207.29L179.123 177.293C179.545 176.991 179.884 176.586 180.107 176.117C180.329 175.648 180.429 175.129 180.395 174.611C180.362 174.093 180.197 173.591 179.915 173.155C179.634 172.718 179.246 172.36 178.788 172.115L118.341 138.705L133.232 205.524C133.356 206.043 133.606 206.524 133.962 206.922C134.317 207.32 134.765 207.624 135.267 207.806C135.768 207.989 136.307 208.043 136.835 207.966C137.363 207.888 137.864 207.68 138.291 207.362" fill="white"/>
  <path d="M105.218 126.773L120.729 54.2033C120.848 53.6021 120.784 52.9793 120.546 52.4145C120.309 51.8497 119.908 51.3686 119.395 51.0329C118.883 50.6972 118.282 50.522 117.669 50.5299C117.056 50.5378 116.46 50.7283 115.956 51.0771L76.223 81.5513C75.2168 82.3231 74.4026 83.317 73.8438 84.4553C73.285 85.5937 72.9967 86.8457 73.0013 88.1138V165.433C72.9781 166.721 73.2574 167.996 73.817 169.157C74.3765 170.318 75.2006 171.331 76.223 172.115L115.765 202.469C116.269 202.818 116.866 203.009 117.478 203.017C118.091 203.024 118.692 202.849 119.205 202.514C119.717 202.178 120.118 201.697 120.355 201.132C120.593 200.567 120.657 199.944 120.538 199.343L105.218 126.773Z" fill="white"/>
</svg>
