<svg width="256" height="256" viewBox="0 0 256 256" fill="none" xmlns="http://www.w3.org/2000/svg">
  <path fill-rule="evenodd" clip-rule="evenodd" d="M18.8719 194.93C20.9769 198.355 23.2387 201.674 25.6471 204.875L41.3708 195.797C38.897 192.641 36.592 189.345 34.4693 185.925L18.8719 194.93ZM224.936 75.9595C226.831 79.4833 228.54 83.1222 230.05 86.8632L245.775 77.7846C244.194 74.0815 242.443 70.4682 240.533 66.9543L224.936 75.9595ZM234.312 56.6897L218.68 65.7149C216.387 62.3832 213.915 59.1841 211.279 56.1316L227.109 46.9917C229.657 50.1055 232.062 53.3415 234.312 56.6897ZM28.7063 175.396L13.074 184.421C11.3029 180.821 9.69602 177.124 8.26315 173.343L24.096 164.202C25.4311 168.034 26.9723 171.77 28.7063 175.396ZM1.56467 107.928C2.41911 102.503 3.61437 97.1906 5.12784 92.0143L30.2446 77.5132C27.2607 83.2791 24.7719 89.3427 22.8346 95.6477L1.56467 107.928ZM46.2176 54.4348C61.5136 37.4412 82.0303 25.2401 105.242 20.3571L139.603 0.518788C135.781 0.175408 131.911 0 128 0C76.4741 0 32.0591 30.445 11.7626 74.3274L46.2176 54.4348ZM152.558 20.7517C146.268 19.3172 139.772 18.4219 133.122 18.1171L158.267 3.59946C163.6 4.89255 168.803 6.51972 173.852 8.45756L152.558 20.7517ZM107.832 254.42C114.402 255.46 121.138 256 128 256C182.58 256 229.181 221.839 247.589 173.732L218.522 190.513C200.253 216.918 170.729 234.941 136.885 237.646L107.832 254.42ZM229.585 170.269L252.721 156.912C253.877 151.905 254.739 146.786 255.289 141.574L235.092 153.234C233.713 159.108 231.864 164.8 229.585 170.269ZM113.837 237.097L90.6715 250.471C85.6737 248.95 80.8055 247.131 76.0876 245.035L96.3025 233.364C101.969 235.067 107.827 236.324 113.837 237.097ZM4.47535 161.673C3.38097 157.649 2.47797 153.546 1.77673 149.375L18.6102 139.656C19.0627 143.952 19.7625 148.174 20.695 152.309L4.47535 161.673ZM202.683 47.2378C199.548 44.3376 196.245 41.6176 192.788 39.0944L209.607 29.3838C212.841 32.0629 215.941 34.898 218.895 37.8776L202.683 47.2378ZM181.404 31.8105L199.137 21.5721C195.335 19.0256 191.389 16.6774 187.313 14.5424L168.2 25.5772C172.758 27.3674 177.167 29.453 181.404 31.8105ZM0.270447 136.388L18.0154 126.143C18.0971 121.207 18.5038 116.351 19.2152 111.594L0.110865 122.624C0.0371971 124.407 0 126.199 0 128C0 130.818 0.0910766 133.615 0.270447 136.388ZM52.1704 231.131C55.7681 233.781 59.5095 236.247 63.3807 238.515L81.8232 227.868C77.5471 225.887 73.4197 223.64 69.4622 221.148L52.1704 231.131ZM237.924 123.886C237.975 125.251 238 126.623 238 128C238 131.356 237.85 134.676 237.556 137.955L255.998 127.308C255.974 122.777 255.715 118.302 255.232 113.894L237.924 123.886ZM253.193 101.214L236.657 110.761C235.998 106.574 235.103 102.464 233.985 98.4477L250.012 89.1945C251.26 93.1223 252.324 97.1323 253.193 101.214ZM58.7539 213.474L42.2295 223.014C39.1527 220.235 36.2115 217.308 33.4171 214.246L49.4394 204.995C52.3791 207.994 55.4891 210.826 58.7539 213.474Z" fill="#B3BDC7"/>
  <path d="M128.004 228C183.234 228 228.004 183.23 228.004 128C228.004 72.77 183.234 28 128.004 28C72.7739 28 28.0039 72.77 28.0039 128C28.0039 183.23 72.7739 228 128.004 228Z" fill="#272C33"/>
  <path d="M75.4604 76.6766L88.2195 69.3805L89.94 72.316L136.969 45.3228L133.539 43.3552L130.077 41.3557L128.356 40.3666L51.7373 84.4193V86.3869L73.7399 73.7199L75.4604 76.6766Z" fill="#D6DCE1"/>
  <path d="M75.4604 104.415L112.327 83.2072L114.048 86.1958L161.077 59.1813L157.647 57.1818L154.195 55.2142L152.475 54.2464L51.7373 112.126V114.093L73.7399 101.426L75.4604 104.415Z" fill="#D6DCE1"/>
  <path d="M75.4604 118.273L124.371 90.1626L126.112 93.1193L173.131 66.0729L169.69 64.1372L166.249 62.1377L164.518 61.1486L51.7373 125.951V127.962L73.7399 115.305L75.4604 118.273Z" fill="#D6DCE1"/>
  <path d="M75.4604 132.12L136.777 96.8953L138.508 99.8412L185.185 73.0288L181.755 71.0293L178.303 69.0617L176.583 68.0726L51.7373 139.831V141.799L73.7399 129.132L75.4604 132.12Z" fill="#D6DCE1"/>
  <path d="M75.4604 145.946L148.842 103.797L150.562 106.786L197.239 79.931L193.798 77.9846L190.357 75.9851L188.626 74.996L51.7373 153.668V155.635L73.7399 143L75.4604 145.946Z" fill="#D6DCE1"/>
  <path d="M202.411 82.92L200.69 81.9202L51.7373 167.537V169.504L73.7399 156.88L75.4604 159.826L148.842 117.677L150.562 120.634L204.986 89.3758V85.4087V84.4196L202.411 82.92Z" fill="#D6DCE1"/>
  <path d="M61.1869 177.759L73.5293 170.676L75.2391 173.622L148.492 131.547L150.213 134.525L205 103.044V99.0769V95.1098V93.1422L59.4985 176.781L61.1869 177.759Z" fill="#D6DCE1"/>
  <path d="M71.5388 183.852L73.27 184.841L85.7834 177.63L87.5252 180.608L148.479 145.574L150.199 148.563L204.986 117.082V113.115V109.147V107.169L71.5388 183.852Z" fill="#D6DCE1"/>
  <path d="M85.3133 191.775L97.8481 184.554L99.5685 187.532L148.479 159.411L150.199 162.389L204.986 130.908V126.941V123.005V121.017L83.5608 190.765L85.3133 191.775Z" fill="#D6DCE1"/>
  <path d="M97.3665 198.699L109.891 191.499L111.632 194.456L148.478 173.291L150.198 176.237L204.986 144.756V140.82V136.853V134.875L95.646 197.721L97.3665 198.699Z" fill="#D6DCE1"/>
  <path d="M107.711 204.644L109.421 205.623L121.988 198.412L123.676 201.401L148.478 187.117L150.199 190.095L204.986 158.613V154.646V150.679V148.712L107.711 204.644Z" fill="#D6DCE1"/>
  <path d="M121.475 212.579L133.999 205.336L135.719 208.314L148.479 200.965L150.199 203.943L204.986 172.493V168.526V164.559V162.591L119.754 211.6L121.475 212.579Z" fill="#D6DCE1"/>
  <path d="M149.034 52.247L145.582 50.2794L142.141 48.3012L140.421 47.2908L51.7373 98.2461V100.214L73.7399 87.5998L75.4604 90.5352L100.263 76.2835L102.026 79.2721L149.034 52.247Z" fill="#D6DCE1"/>
</svg>
