<svg width="257" height="256" viewBox="0 0 257 256" fill="none" xmlns="http://www.w3.org/2000/svg">
  <path fill-rule="evenodd" clip-rule="evenodd" d="M19.8699 194.93C21.975 198.355 24.2367 201.674 26.6452 204.875L42.3689 195.797C39.8951 192.641 37.59 189.345 35.4674 185.925L19.8699 194.93ZM225.934 75.9595C227.829 79.4833 229.538 83.1222 231.048 86.8632L246.773 77.7846C245.192 74.0815 243.441 70.4682 241.531 66.9543L225.934 75.9595ZM235.31 56.6897L219.678 65.7149C217.385 62.3832 214.913 59.1841 212.277 56.1316L228.107 46.9917C230.655 50.1055 233.06 53.3415 235.31 56.6897ZM29.7044 175.396L14.0721 184.421C12.301 180.821 10.6941 177.124 9.2612 173.343L25.094 164.202C26.4292 168.034 27.9704 171.77 29.7044 175.396ZM2.56271 107.928C3.41716 102.503 4.61242 97.1906 6.12589 92.0143L31.2426 77.5132C28.2587 83.2791 25.77 89.3427 23.8326 95.6477L2.56271 107.928ZM47.2156 54.4348C62.5117 37.4412 83.0283 25.2401 106.24 20.3571L140.601 0.518788C136.779 0.175408 132.909 0 128.998 0C77.4722 0 33.0572 30.445 12.7606 74.3274L47.2156 54.4348ZM153.556 20.7517C147.266 19.3172 140.77 18.4219 134.12 18.1171L159.265 3.59946C164.598 4.89255 169.801 6.51972 174.85 8.45756L153.556 20.7517ZM108.83 254.42C115.4 255.46 122.136 256 128.998 256C183.578 256 230.179 221.839 248.587 173.732L219.52 190.513C201.251 216.918 171.727 234.941 137.883 237.646L108.83 254.42ZM230.584 170.269L253.719 156.912C254.875 151.905 255.737 146.786 256.287 141.574L236.09 153.234C234.711 159.108 232.862 164.8 230.584 170.269ZM114.835 237.097L91.6696 250.471C86.6717 248.95 81.8035 247.131 77.0856 245.035L97.3005 233.364C102.967 235.067 108.825 236.324 114.835 237.097ZM5.4734 161.673C4.37901 157.649 3.47601 153.546 2.77478 149.375L19.6083 139.656C20.0607 143.952 20.7605 148.174 21.6931 152.309L5.4734 161.673ZM203.681 47.2378C200.546 44.3376 197.243 41.6176 193.786 39.0944L210.605 29.3838C213.839 32.0629 216.939 34.898 219.893 37.8776L203.681 47.2378ZM182.402 31.8105L200.135 21.5721C196.333 19.0256 192.387 16.6774 188.311 14.5424L169.198 25.5772C173.756 27.3674 178.165 29.453 182.402 31.8105ZM1.26849 136.388L19.0134 126.143C19.0951 121.207 19.5019 116.351 20.2132 111.594L1.10891 122.624C1.03524 124.407 0.998047 126.199 0.998047 128C0.998047 130.818 1.08912 133.615 1.26849 136.388ZM53.1685 231.131C56.7662 233.781 60.5076 236.247 64.3788 238.515L82.8213 227.868C78.5452 225.887 74.4177 223.64 70.4603 221.148L53.1685 231.131ZM238.923 123.886C238.973 125.251 238.998 126.623 238.998 128C238.998 131.356 238.848 134.676 238.554 137.955L256.996 127.308C256.972 122.777 256.713 118.302 256.23 113.894L238.923 123.886ZM254.191 101.214L237.655 110.761C236.996 106.574 236.101 102.464 234.983 98.4477L251.01 89.1945C252.258 93.1223 253.322 97.1323 254.191 101.214ZM59.7519 213.474L43.2276 223.014C40.1507 220.235 37.2096 217.308 34.4152 214.246L50.4375 204.995C53.3771 207.994 56.4872 210.826 59.7519 213.474Z" fill="#B3BDC7"/>
  <circle cx="128.998" cy="128" r="100" fill="#272C33"/>
  <path d="M82.0097 62.4475L206.301 147.313L175.562 192.753L51.271 107.219L82.0097 62.4475Z" fill="url(#paint0_linear_298_321)"/>
  <path d="M206.304 147.313C195.612 162.682 159.528 156.668 125.448 132.612C90.6997 109.223 71.9891 77.8164 82.0126 62.4471C92.7044 47.0777 128.789 53.0918 162.869 77.1482C197.617 99.8681 216.328 131.943 206.304 147.313Z" fill="url(#paint1_linear_298_321)"/>
  <path d="M175.567 192.085C164.875 207.454 128.791 201.44 94.7109 177.384C60.631 153.328 41.2522 122.589 51.944 106.551C62.6357 91.1818 98.7203 97.1959 132.8 121.252C166.88 145.309 185.591 176.716 175.567 192.085Z" fill="url(#paint2_linear_298_321)"/>
  <path d="M206.309 147.313L175.57 192.753C164.879 208.122 128.794 201.44 94.714 178.051C88.0316 173.374 82.0175 168.696 76.0034 163.35C80.6811 162.682 86.6952 160.009 92.7093 153.327C103.401 141.967 108.747 139.294 113.425 139.962C118.102 139.962 123.448 144.64 132.135 156C140.822 167.36 152.85 170.701 160.201 164.687C160.869 164.019 161.537 164.019 162.206 163.35C168.22 158.673 170.224 156.668 181.584 135.284C184.257 129.939 193.613 121.252 206.309 125.261C209.65 133.948 209.65 141.299 206.309 147.313Z" fill="#0E0F23"/>
  <path fill-rule="evenodd" clip-rule="evenodd" d="M201.626 144.64C192.271 158.005 159.527 151.322 128.12 129.271C96.0451 107.219 77.3346 79.1532 86.6898 65.7886C96.0451 52.4239 128.789 59.1062 160.196 81.1579C191.603 103.21 210.313 131.275 201.626 144.64ZM172.224 124.593C167.546 131.275 151.509 127.934 135.471 117.243C120.102 106.551 110.746 92.5179 115.424 85.8356C120.102 79.1532 136.139 82.4944 152.177 93.1861C167.546 103.878 176.901 117.911 172.224 124.593Z" fill="white"/>
  <path d="M79.3419 77.816C79.3419 77.1478 78.6736 76.4795 78.0054 77.1478C77.3372 77.816 76.6689 77.816 76.6689 78.4842C77.3372 80.4889 78.0054 81.8254 78.0054 83.1619C78.0054 83.8301 78.6736 84.4983 79.3419 83.8301C80.0101 83.8301 80.6783 83.1619 80.0101 82.4936C80.0101 81.1572 80.0101 79.8207 79.3419 77.816Z" fill="white"/>
  <path d="M82.6805 88.5084C82.6805 87.8401 82.0122 87.1719 81.344 87.8401C80.6758 88.5084 80.6758 88.5084 80.6758 89.1766C88.0264 105.882 103.396 123.925 123.443 137.289C124.111 137.958 124.779 137.289 125.447 137.289C126.116 136.621 125.447 135.953 125.447 135.285C104.732 121.92 90.0311 104.546 82.6805 88.5084Z" fill="white"/>
  <path d="M163.545 153.995C162.876 153.995 162.208 153.995 162.208 154.663C162.208 155.332 162.208 156 162.876 156C164.881 156.668 167.554 157.336 169.559 158.005C170.227 158.005 170.895 158.005 170.895 157.336C170.895 156.668 170.895 156 170.227 156C168.222 155.332 165.549 154.663 163.545 153.995Z" fill="white"/>
  <path d="M175.565 156.667C174.897 156.667 174.229 157.336 174.229 158.004C174.229 158.672 174.897 159.34 175.565 159.34C180.911 160.009 186.925 160.677 191.603 160.009C192.271 160.009 192.939 159.34 192.939 158.672C192.939 158.004 192.271 157.336 191.603 157.336C186.257 158.004 180.911 157.336 175.565 156.667Z" fill="white"/>
  <defs>
    <linearGradient id="paint0_linear_298_321" x1="106.362" y1="50.3812" x2="131.01" y2="135.021" gradientUnits="userSpaceOnUse">
      <stop stop-color="#03B8FF"/>
      <stop offset="1" stop-color="#FA52A0"/>
    </linearGradient>
    <linearGradient id="paint1_linear_298_321" x1="126.663" y1="44.4689" x2="151.312" y2="129.109" gradientUnits="userSpaceOnUse">
      <stop stop-color="#03B8FF"/>
      <stop offset="1" stop-color="#FA52A0"/>
    </linearGradient>
    <linearGradient id="paint2_linear_298_321" x1="86.1308" y1="56.2739" x2="110.78" y2="140.914" gradientUnits="userSpaceOnUse">
      <stop stop-color="#03B8FF"/>
      <stop offset="1" stop-color="#FA52A0"/>
    </linearGradient>
  </defs>
</svg>
